<?xml version="1.0" encoding="utf-8" standalone="no"?>
<!DOCTYPE svg PUBLIC "-//W3C//DTD SVG 1.1//EN"
  "http://www.w3.org/Graphics/SVG/1.1/DTD/svg11.dtd">
<svg xmlns:xlink="http://www.w3.org/1999/xlink" width="460.8pt" height="345.6pt" viewBox="0 0 460.8 345.6" xmlns="http://www.w3.org/2000/svg" version="1.1">
 <metadata>
  <rdf:RDF xmlns:dc="http://purl.org/dc/elements/1.1/" xmlns:cc="http://creativecommons.org/ns#" xmlns:rdf="http://www.w3.org/1999/02/22-rdf-syntax-ns#">
   <cc:Work>
    <dc:type rdf:resource="http://purl.org/dc/dcmitype/StillImage"/>
    <dc:date>2026-01-10T10:15:47.768472</dc:date>
    <dc:format>image/svg+xml</dc:format>
    <dc:creator>
     <cc:Agent>
      <dc:title>Matplotlib v3.10.7, https://matplotlib.org/</dc:title>
     </cc:Agent>
    </dc:creator>
   </cc:Work>
  </rdf:RDF>
 </metadata>
 <defs>
  <style type="text/css">*{stroke-linejoin: round; stroke-linecap: butt}</style>
 </defs>
 <g id="figure_1">
  <g id="patch_1">
   <path d="M 0 345.6 
L 460.8 345.6 
L 460.8 0 
L 0 0 
z
" style="fill: #ffffff"/>
  </g>
  <g id="axes_1">
   <g id="patch_2">
    <path d="M 57.6 307.584 
L 414.72 307.584 
L 414.72 41.472 
L 57.6 41.472 
z
" style="fill: #ffffff"/>
   </g>
   <g id="matplotlib.axis_1">
    <g id="xtick_1">
     <g id="line2d_1">
      <path d="M 73.832727 307.584 
L 73.832727 41.472 
" clip-path="url(#p9c853b76dc)" style="fill: none; stroke: #b0b0b0; stroke-width: 0.8; stroke-linecap: square"/>
     </g>
     <g id="line2d_2">
      <defs>
       <path id="m4b4b9d5d84" d="M 0 0 
L 0 3.5 
" style="stroke: #000000; stroke-width: 0.8"/>
      </defs>
      <g>
       <use xlink:href="#m4b4b9d5d84" x="73.832727" y="307.584" style="stroke: #000000; stroke-width: 0.8"/>
      </g>
     </g>
     <g id="text_1">
      <!-- 0 -->
      <g transform="translate(70.651477 322.182437) scale(0.1 -0.1)">
       <defs>
        <path id="DejaVuSans-30" d="M 2034 4250 
Q 1547 4250 1301 3770 
Q 1056 3291 1056 2328 
Q 1056 1369 1301 889 
Q 1547 409 2034 409 
Q 2525 409 2770 889 
Q 3016 1369 3016 2328 
Q 3016 3291 2770 3770 
Q 2525 4250 2034 4250 
z
M 2034 4750 
Q 2819 4750 3233 4129 
Q 3647 3509 3647 2328 
Q 3647 1150 3233 529 
Q 2819 -91 2034 -91 
Q 1250 -91 836 529 
Q 422 1150 422 2328 
Q 422 3509 836 4129 
Q 1250 4750 2034 4750 
z
" transform="scale(0.015625)"/>
       </defs>
       <use xlink:href="#DejaVuSans-30"/>
      </g>
     </g>
    </g>
    <g id="xtick_2">
     <g id="line2d_3">
      <path d="M 114.618474 307.584 
L 114.618474 41.472 
" clip-path="url(#p9c853b76dc)" style="fill: none; stroke: #b0b0b0; stroke-width: 0.8; stroke-linecap: square"/>
     </g>
     <g id="line2d_4">
      <g>
       <use xlink:href="#m4b4b9d5d84" x="114.618474" y="307.584" style="stroke: #000000; stroke-width: 0.8"/>
      </g>
     </g>
     <g id="text_2">
      <!-- 25 -->
      <g transform="translate(108.255974 322.182437) scale(0.1 -0.1)">
       <defs>
        <path id="DejaVuSans-32" d="M 1228 531 
L 3431 531 
L 3431 0 
L 469 0 
L 469 531 
Q 828 903 1448 1529 
Q 2069 2156 2228 2338 
Q 2531 2678 2651 2914 
Q 2772 3150 2772 3378 
Q 2772 3750 2511 3984 
Q 2250 4219 1831 4219 
Q 1534 4219 1204 4116 
Q 875 4013 500 3803 
L 500 4441 
Q 881 4594 1212 4672 
Q 1544 4750 1819 4750 
Q 2544 4750 2975 4387 
Q 3406 4025 3406 3419 
Q 3406 3131 3298 2873 
Q 3191 2616 2906 2266 
Q 2828 2175 2409 1742 
Q 1991 1309 1228 531 
z
" transform="scale(0.015625)"/>
        <path id="DejaVuSans-35" d="M 691 4666 
L 3169 4666 
L 3169 4134 
L 1269 4134 
L 1269 2991 
Q 1406 3038 1543 3061 
Q 1681 3084 1819 3084 
Q 2600 3084 3056 2656 
Q 3513 2228 3513 1497 
Q 3513 744 3044 326 
Q 2575 -91 1722 -91 
Q 1428 -91 1123 -41 
Q 819 9 494 109 
L 494 744 
Q 775 591 1075 516 
Q 1375 441 1709 441 
Q 2250 441 2565 725 
Q 2881 1009 2881 1497 
Q 2881 1984 2565 2268 
Q 2250 2553 1709 2553 
Q 1456 2553 1204 2497 
Q 953 2441 691 2322 
L 691 4666 
z
" transform="scale(0.015625)"/>
       </defs>
       <use xlink:href="#DejaVuSans-32"/>
       <use xlink:href="#DejaVuSans-35" transform="translate(63.623047 0)"/>
      </g>
     </g>
    </g>
    <g id="xtick_3">
     <g id="line2d_5">
      <path d="M 155.404221 307.584 
L 155.404221 41.472 
" clip-path="url(#p9c853b76dc)" style="fill: none; stroke: #b0b0b0; stroke-width: 0.8; stroke-linecap: square"/>
     </g>
     <g id="line2d_6">
      <g>
       <use xlink:href="#m4b4b9d5d84" x="155.404221" y="307.584" style="stroke: #000000; stroke-width: 0.8"/>
      </g>
     </g>
     <g id="text_3">
      <!-- 50 -->
      <g transform="translate(149.041721 322.182437) scale(0.1 -0.1)">
       <use xlink:href="#DejaVuSans-35"/>
       <use xlink:href="#DejaVuSans-30" transform="translate(63.623047 0)"/>
      </g>
     </g>
    </g>
    <g id="xtick_4">
     <g id="line2d_7">
      <path d="M 196.189968 307.584 
L 196.189968 41.472 
" clip-path="url(#p9c853b76dc)" style="fill: none; stroke: #b0b0b0; stroke-width: 0.8; stroke-linecap: square"/>
     </g>
     <g id="line2d_8">
      <g>
       <use xlink:href="#m4b4b9d5d84" x="196.189968" y="307.584" style="stroke: #000000; stroke-width: 0.8"/>
      </g>
     </g>
     <g id="text_4">
      <!-- 75 -->
      <g transform="translate(189.827468 322.182437) scale(0.1 -0.1)">
       <defs>
        <path id="DejaVuSans-37" d="M 525 4666 
L 3525 4666 
L 3525 4397 
L 1831 0 
L 1172 0 
L 2766 4134 
L 525 4134 
L 525 4666 
z
" transform="scale(0.015625)"/>
       </defs>
       <use xlink:href="#DejaVuSans-37"/>
       <use xlink:href="#DejaVuSans-35" transform="translate(63.623047 0)"/>
      </g>
     </g>
    </g>
    <g id="xtick_5">
     <g id="line2d_9">
      <path d="M 236.975715 307.584 
L 236.975715 41.472 
" clip-path="url(#p9c853b76dc)" style="fill: none; stroke: #b0b0b0; stroke-width: 0.8; stroke-linecap: square"/>
     </g>
     <g id="line2d_10">
      <g>
       <use xlink:href="#m4b4b9d5d84" x="236.975715" y="307.584" style="stroke: #000000; stroke-width: 0.8"/>
      </g>
     </g>
     <g id="text_5">
      <!-- 100 -->
      <g transform="translate(227.431965 322.182437) scale(0.1 -0.1)">
       <defs>
        <path id="DejaVuSans-31" d="M 794 531 
L 1825 531 
L 1825 4091 
L 703 3866 
L 703 4441 
L 1819 4666 
L 2450 4666 
L 2450 531 
L 3481 531 
L 3481 0 
L 794 0 
L 794 531 
z
" transform="scale(0.015625)"/>
       </defs>
       <use xlink:href="#DejaVuSans-31"/>
       <use xlink:href="#DejaVuSans-30" transform="translate(63.623047 0)"/>
       <use xlink:href="#DejaVuSans-30" transform="translate(127.246094 0)"/>
      </g>
     </g>
    </g>
    <g id="xtick_6">
     <g id="line2d_11">
      <path d="M 277.761462 307.584 
L 277.761462 41.472 
" clip-path="url(#p9c853b76dc)" style="fill: none; stroke: #b0b0b0; stroke-width: 0.8; stroke-linecap: square"/>
     </g>
     <g id="line2d_12">
      <g>
       <use xlink:href="#m4b4b9d5d84" x="277.761462" y="307.584" style="stroke: #000000; stroke-width: 0.8"/>
      </g>
     </g>
     <g id="text_6">
      <!-- 125 -->
      <g transform="translate(268.217712 322.182437) scale(0.1 -0.1)">
       <use xlink:href="#DejaVuSans-31"/>
       <use xlink:href="#DejaVuSans-32" transform="translate(63.623047 0)"/>
       <use xlink:href="#DejaVuSans-35" transform="translate(127.246094 0)"/>
      </g>
     </g>
    </g>
    <g id="xtick_7">
     <g id="line2d_13">
      <path d="M 318.547209 307.584 
L 318.547209 41.472 
" clip-path="url(#p9c853b76dc)" style="fill: none; stroke: #b0b0b0; stroke-width: 0.8; stroke-linecap: square"/>
     </g>
     <g id="line2d_14">
      <g>
       <use xlink:href="#m4b4b9d5d84" x="318.547209" y="307.584" style="stroke: #000000; stroke-width: 0.8"/>
      </g>
     </g>
     <g id="text_7">
      <!-- 150 -->
      <g transform="translate(309.003459 322.182437) scale(0.1 -0.1)">
       <use xlink:href="#DejaVuSans-31"/>
       <use xlink:href="#DejaVuSans-35" transform="translate(63.623047 0)"/>
       <use xlink:href="#DejaVuSans-30" transform="translate(127.246094 0)"/>
      </g>
     </g>
    </g>
    <g id="xtick_8">
     <g id="line2d_15">
      <path d="M 359.332956 307.584 
L 359.332956 41.472 
" clip-path="url(#p9c853b76dc)" style="fill: none; stroke: #b0b0b0; stroke-width: 0.8; stroke-linecap: square"/>
     </g>
     <g id="line2d_16">
      <g>
       <use xlink:href="#m4b4b9d5d84" x="359.332956" y="307.584" style="stroke: #000000; stroke-width: 0.8"/>
      </g>
     </g>
     <g id="text_8">
      <!-- 175 -->
      <g transform="translate(349.789206 322.182437) scale(0.1 -0.1)">
       <use xlink:href="#DejaVuSans-31"/>
       <use xlink:href="#DejaVuSans-37" transform="translate(63.623047 0)"/>
       <use xlink:href="#DejaVuSans-35" transform="translate(127.246094 0)"/>
      </g>
     </g>
    </g>
    <g id="xtick_9">
     <g id="line2d_17">
      <path d="M 400.118703 307.584 
L 400.118703 41.472 
" clip-path="url(#p9c853b76dc)" style="fill: none; stroke: #b0b0b0; stroke-width: 0.8; stroke-linecap: square"/>
     </g>
     <g id="line2d_18">
      <g>
       <use xlink:href="#m4b4b9d5d84" x="400.118703" y="307.584" style="stroke: #000000; stroke-width: 0.8"/>
      </g>
     </g>
     <g id="text_9">
      <!-- 200 -->
      <g transform="translate(390.574953 322.182437) scale(0.1 -0.1)">
       <use xlink:href="#DejaVuSans-32"/>
       <use xlink:href="#DejaVuSans-30" transform="translate(63.623047 0)"/>
       <use xlink:href="#DejaVuSans-30" transform="translate(127.246094 0)"/>
      </g>
     </g>
    </g>
    <g id="text_10">
     <!-- Generations -->
     <g transform="translate(205.662344 335.860562) scale(0.1 -0.1)">
      <defs>
       <path id="DejaVuSans-47" d="M 3809 666 
L 3809 1919 
L 2778 1919 
L 2778 2438 
L 4434 2438 
L 4434 434 
Q 4069 175 3628 42 
Q 3188 -91 2688 -91 
Q 1594 -91 976 548 
Q 359 1188 359 2328 
Q 359 3472 976 4111 
Q 1594 4750 2688 4750 
Q 3144 4750 3555 4637 
Q 3966 4525 4313 4306 
L 4313 3634 
Q 3963 3931 3569 4081 
Q 3175 4231 2741 4231 
Q 1884 4231 1454 3753 
Q 1025 3275 1025 2328 
Q 1025 1384 1454 906 
Q 1884 428 2741 428 
Q 3075 428 3337 486 
Q 3600 544 3809 666 
z
" transform="scale(0.015625)"/>
       <path id="DejaVuSans-65" d="M 3597 1894 
L 3597 1613 
L 953 1613 
Q 991 1019 1311 708 
Q 1631 397 2203 397 
Q 2534 397 2845 478 
Q 3156 559 3463 722 
L 3463 178 
Q 3153 47 2828 -22 
Q 2503 -91 2169 -91 
Q 1331 -91 842 396 
Q 353 884 353 1716 
Q 353 2575 817 3079 
Q 1281 3584 2069 3584 
Q 2775 3584 3186 3129 
Q 3597 2675 3597 1894 
z
M 3022 2063 
Q 3016 2534 2758 2815 
Q 2500 3097 2075 3097 
Q 1594 3097 1305 2825 
Q 1016 2553 972 2059 
L 3022 2063 
z
" transform="scale(0.015625)"/>
       <path id="DejaVuSans-6e" d="M 3513 2113 
L 3513 0 
L 2938 0 
L 2938 2094 
Q 2938 2591 2744 2837 
Q 2550 3084 2163 3084 
Q 1697 3084 1428 2787 
Q 1159 2491 1159 1978 
L 1159 0 
L 581 0 
L 581 3500 
L 1159 3500 
L 1159 2956 
Q 1366 3272 1645 3428 
Q 1925 3584 2291 3584 
Q 2894 3584 3203 3211 
Q 3513 2838 3513 2113 
z
" transform="scale(0.015625)"/>
       <path id="DejaVuSans-72" d="M 2631 2963 
Q 2534 3019 2420 3045 
Q 2306 3072 2169 3072 
Q 1681 3072 1420 2755 
Q 1159 2438 1159 1844 
L 1159 0 
L 581 0 
L 581 3500 
L 1159 3500 
L 1159 2956 
Q 1341 3275 1631 3429 
Q 1922 3584 2338 3584 
Q 2397 3584 2469 3576 
Q 2541 3569 2628 3553 
L 2631 2963 
z
" transform="scale(0.015625)"/>
       <path id="DejaVuSans-61" d="M 2194 1759 
Q 1497 1759 1228 1600 
Q 959 1441 959 1056 
Q 959 750 1161 570 
Q 1363 391 1709 391 
Q 2188 391 2477 730 
Q 2766 1069 2766 1631 
L 2766 1759 
L 2194 1759 
z
M 3341 1997 
L 3341 0 
L 2766 0 
L 2766 531 
Q 2569 213 2275 61 
Q 1981 -91 1556 -91 
Q 1019 -91 701 211 
Q 384 513 384 1019 
Q 384 1609 779 1909 
Q 1175 2209 1959 2209 
L 2766 2209 
L 2766 2266 
Q 2766 2663 2505 2880 
Q 2244 3097 1772 3097 
Q 1472 3097 1187 3025 
Q 903 2953 641 2809 
L 641 3341 
Q 956 3463 1253 3523 
Q 1550 3584 1831 3584 
Q 2591 3584 2966 3190 
Q 3341 2797 3341 1997 
z
" transform="scale(0.015625)"/>
       <path id="DejaVuSans-74" d="M 1172 4494 
L 1172 3500 
L 2356 3500 
L 2356 3053 
L 1172 3053 
L 1172 1153 
Q 1172 725 1289 603 
Q 1406 481 1766 481 
L 2356 481 
L 2356 0 
L 1766 0 
Q 1100 0 847 248 
Q 594 497 594 1153 
L 594 3053 
L 172 3053 
L 172 3500 
L 594 3500 
L 594 4494 
L 1172 4494 
z
" transform="scale(0.015625)"/>
       <path id="DejaVuSans-69" d="M 603 3500 
L 1178 3500 
L 1178 0 
L 603 0 
L 603 3500 
z
M 603 4863 
L 1178 4863 
L 1178 4134 
L 603 4134 
L 603 4863 
z
" transform="scale(0.015625)"/>
       <path id="DejaVuSans-6f" d="M 1959 3097 
Q 1497 3097 1228 2736 
Q 959 2375 959 1747 
Q 959 1119 1226 758 
Q 1494 397 1959 397 
Q 2419 397 2687 759 
Q 2956 1122 2956 1747 
Q 2956 2369 2687 2733 
Q 2419 3097 1959 3097 
z
M 1959 3584 
Q 2709 3584 3137 3096 
Q 3566 2609 3566 1747 
Q 3566 888 3137 398 
Q 2709 -91 1959 -91 
Q 1206 -91 779 398 
Q 353 888 353 1747 
Q 353 2609 779 3096 
Q 1206 3584 1959 3584 
z
" transform="scale(0.015625)"/>
       <path id="DejaVuSans-73" d="M 2834 3397 
L 2834 2853 
Q 2591 2978 2328 3040 
Q 2066 3103 1784 3103 
Q 1356 3103 1142 2972 
Q 928 2841 928 2578 
Q 928 2378 1081 2264 
Q 1234 2150 1697 2047 
L 1894 2003 
Q 2506 1872 2764 1633 
Q 3022 1394 3022 966 
Q 3022 478 2636 193 
Q 2250 -91 1575 -91 
Q 1294 -91 989 -36 
Q 684 19 347 128 
L 347 722 
Q 666 556 975 473 
Q 1284 391 1588 391 
Q 1994 391 2212 530 
Q 2431 669 2431 922 
Q 2431 1156 2273 1281 
Q 2116 1406 1581 1522 
L 1381 1569 
Q 847 1681 609 1914 
Q 372 2147 372 2553 
Q 372 3047 722 3315 
Q 1072 3584 1716 3584 
Q 2034 3584 2315 3537 
Q 2597 3491 2834 3397 
z
" transform="scale(0.015625)"/>
      </defs>
      <use xlink:href="#DejaVuSans-47"/>
      <use xlink:href="#DejaVuSans-65" transform="translate(77.490234 0)"/>
      <use xlink:href="#DejaVuSans-6e" transform="translate(139.013672 0)"/>
      <use xlink:href="#DejaVuSans-65" transform="translate(202.392578 0)"/>
      <use xlink:href="#DejaVuSans-72" transform="translate(263.916016 0)"/>
      <use xlink:href="#DejaVuSans-61" transform="translate(305.029297 0)"/>
      <use xlink:href="#DejaVuSans-74" transform="translate(366.308594 0)"/>
      <use xlink:href="#DejaVuSans-69" transform="translate(405.517578 0)"/>
      <use xlink:href="#DejaVuSans-6f" transform="translate(433.300781 0)"/>
      <use xlink:href="#DejaVuSans-6e" transform="translate(494.482422 0)"/>
      <use xlink:href="#DejaVuSans-73" transform="translate(557.861328 0)"/>
     </g>
    </g>
   </g>
   <g id="matplotlib.axis_2">
    <g id="ytick_1">
     <g id="line2d_19">
      <path d="M 57.6 277.705915 
L 414.72 277.705915 
" clip-path="url(#p9c853b76dc)" style="fill: none; stroke: #b0b0b0; stroke-width: 0.8; stroke-linecap: square"/>
     </g>
     <g id="line2d_20">
      <defs>
       <path id="mb7a2dcad77" d="M 0 0 
L -3.5 0 
" style="stroke: #000000; stroke-width: 0.8"/>
      </defs>
      <g>
       <use xlink:href="#mb7a2dcad77" x="57.6" y="277.705915" style="stroke: #000000; stroke-width: 0.8"/>
      </g>
     </g>
     <g id="text_11">
      <!-- −1000 -->
      <g transform="translate(16.770313 281.505134) scale(0.1 -0.1)">
       <defs>
        <path id="DejaVuSans-2212" d="M 678 2272 
L 4684 2272 
L 4684 1741 
L 678 1741 
L 678 2272 
z
" transform="scale(0.015625)"/>
       </defs>
       <use xlink:href="#DejaVuSans-2212"/>
       <use xlink:href="#DejaVuSans-31" transform="translate(83.789062 0)"/>
       <use xlink:href="#DejaVuSans-30" transform="translate(147.412109 0)"/>
       <use xlink:href="#DejaVuSans-30" transform="translate(211.035156 0)"/>
       <use xlink:href="#DejaVuSans-30" transform="translate(274.658203 0)"/>
      </g>
     </g>
    </g>
    <g id="ytick_2">
     <g id="line2d_21">
      <path d="M 57.6 243.795427 
L 414.72 243.795427 
" clip-path="url(#p9c853b76dc)" style="fill: none; stroke: #b0b0b0; stroke-width: 0.8; stroke-linecap: square"/>
     </g>
     <g id="line2d_22">
      <g>
       <use xlink:href="#mb7a2dcad77" x="57.6" y="243.795427" style="stroke: #000000; stroke-width: 0.8"/>
      </g>
     </g>
     <g id="text_12">
      <!-- 0 -->
      <g transform="translate(44.2375 247.594645) scale(0.1 -0.1)">
       <use xlink:href="#DejaVuSans-30"/>
      </g>
     </g>
    </g>
    <g id="ytick_3">
     <g id="line2d_23">
      <path d="M 57.6 209.884939 
L 414.72 209.884939 
" clip-path="url(#p9c853b76dc)" style="fill: none; stroke: #b0b0b0; stroke-width: 0.8; stroke-linecap: square"/>
     </g>
     <g id="line2d_24">
      <g>
       <use xlink:href="#mb7a2dcad77" x="57.6" y="209.884939" style="stroke: #000000; stroke-width: 0.8"/>
      </g>
     </g>
     <g id="text_13">
      <!-- 1000 -->
      <g transform="translate(25.15 213.684157) scale(0.1 -0.1)">
       <use xlink:href="#DejaVuSans-31"/>
       <use xlink:href="#DejaVuSans-30" transform="translate(63.623047 0)"/>
       <use xlink:href="#DejaVuSans-30" transform="translate(127.246094 0)"/>
       <use xlink:href="#DejaVuSans-30" transform="translate(190.869141 0)"/>
      </g>
     </g>
    </g>
    <g id="ytick_4">
     <g id="line2d_25">
      <path d="M 57.6 175.97445 
L 414.72 175.97445 
" clip-path="url(#p9c853b76dc)" style="fill: none; stroke: #b0b0b0; stroke-width: 0.8; stroke-linecap: square"/>
     </g>
     <g id="line2d_26">
      <g>
       <use xlink:href="#mb7a2dcad77" x="57.6" y="175.97445" style="stroke: #000000; stroke-width: 0.8"/>
      </g>
     </g>
     <g id="text_14">
      <!-- 2000 -->
      <g transform="translate(25.15 179.773669) scale(0.1 -0.1)">
       <use xlink:href="#DejaVuSans-32"/>
       <use xlink:href="#DejaVuSans-30" transform="translate(63.623047 0)"/>
       <use xlink:href="#DejaVuSans-30" transform="translate(127.246094 0)"/>
       <use xlink:href="#DejaVuSans-30" transform="translate(190.869141 0)"/>
      </g>
     </g>
    </g>
    <g id="ytick_5">
     <g id="line2d_27">
      <path d="M 57.6 142.063962 
L 414.72 142.063962 
" clip-path="url(#p9c853b76dc)" style="fill: none; stroke: #b0b0b0; stroke-width: 0.8; stroke-linecap: square"/>
     </g>
     <g id="line2d_28">
      <g>
       <use xlink:href="#mb7a2dcad77" x="57.6" y="142.063962" style="stroke: #000000; stroke-width: 0.8"/>
      </g>
     </g>
     <g id="text_15">
      <!-- 3000 -->
      <g transform="translate(25.15 145.863181) scale(0.1 -0.1)">
       <defs>
        <path id="DejaVuSans-33" d="M 2597 2516 
Q 3050 2419 3304 2112 
Q 3559 1806 3559 1356 
Q 3559 666 3084 287 
Q 2609 -91 1734 -91 
Q 1441 -91 1130 -33 
Q 819 25 488 141 
L 488 750 
Q 750 597 1062 519 
Q 1375 441 1716 441 
Q 2309 441 2620 675 
Q 2931 909 2931 1356 
Q 2931 1769 2642 2001 
Q 2353 2234 1838 2234 
L 1294 2234 
L 1294 2753 
L 1863 2753 
Q 2328 2753 2575 2939 
Q 2822 3125 2822 3475 
Q 2822 3834 2567 4026 
Q 2313 4219 1838 4219 
Q 1578 4219 1281 4162 
Q 984 4106 628 3988 
L 628 4550 
Q 988 4650 1302 4700 
Q 1616 4750 1894 4750 
Q 2613 4750 3031 4423 
Q 3450 4097 3450 3541 
Q 3450 3153 3228 2886 
Q 3006 2619 2597 2516 
z
" transform="scale(0.015625)"/>
       </defs>
       <use xlink:href="#DejaVuSans-33"/>
       <use xlink:href="#DejaVuSans-30" transform="translate(63.623047 0)"/>
       <use xlink:href="#DejaVuSans-30" transform="translate(127.246094 0)"/>
       <use xlink:href="#DejaVuSans-30" transform="translate(190.869141 0)"/>
      </g>
     </g>
    </g>
    <g id="ytick_6">
     <g id="line2d_29">
      <path d="M 57.6 108.153474 
L 414.72 108.153474 
" clip-path="url(#p9c853b76dc)" style="fill: none; stroke: #b0b0b0; stroke-width: 0.8; stroke-linecap: square"/>
     </g>
     <g id="line2d_30">
      <g>
       <use xlink:href="#mb7a2dcad77" x="57.6" y="108.153474" style="stroke: #000000; stroke-width: 0.8"/>
      </g>
     </g>
     <g id="text_16">
      <!-- 4000 -->
      <g transform="translate(25.15 111.952693) scale(0.1 -0.1)">
       <defs>
        <path id="DejaVuSans-34" d="M 2419 4116 
L 825 1625 
L 2419 1625 
L 2419 4116 
z
M 2253 4666 
L 3047 4666 
L 3047 1625 
L 3713 1625 
L 3713 1100 
L 3047 1100 
L 3047 0 
L 2419 0 
L 2419 1100 
L 313 1100 
L 313 1709 
L 2253 4666 
z
" transform="scale(0.015625)"/>
       </defs>
       <use xlink:href="#DejaVuSans-34"/>
       <use xlink:href="#DejaVuSans-30" transform="translate(63.623047 0)"/>
       <use xlink:href="#DejaVuSans-30" transform="translate(127.246094 0)"/>
       <use xlink:href="#DejaVuSans-30" transform="translate(190.869141 0)"/>
      </g>
     </g>
    </g>
    <g id="ytick_7">
     <g id="line2d_31">
      <path d="M 57.6 74.242986 
L 414.72 74.242986 
" clip-path="url(#p9c853b76dc)" style="fill: none; stroke: #b0b0b0; stroke-width: 0.8; stroke-linecap: square"/>
     </g>
     <g id="line2d_32">
      <g>
       <use xlink:href="#mb7a2dcad77" x="57.6" y="74.242986" style="stroke: #000000; stroke-width: 0.8"/>
      </g>
     </g>
     <g id="text_17">
      <!-- 5000 -->
      <g transform="translate(25.15 78.042205) scale(0.1 -0.1)">
       <use xlink:href="#DejaVuSans-35"/>
       <use xlink:href="#DejaVuSans-30" transform="translate(63.623047 0)"/>
       <use xlink:href="#DejaVuSans-30" transform="translate(127.246094 0)"/>
       <use xlink:href="#DejaVuSans-30" transform="translate(190.869141 0)"/>
      </g>
     </g>
    </g>
    <g id="text_18">
     <!-- Fitness -->
     <g transform="translate(10.690625 191.845187) rotate(-90) scale(0.1 -0.1)">
      <defs>
       <path id="DejaVuSans-46" d="M 628 4666 
L 3309 4666 
L 3309 4134 
L 1259 4134 
L 1259 2759 
L 3109 2759 
L 3109 2228 
L 1259 2228 
L 1259 0 
L 628 0 
L 628 4666 
z
" transform="scale(0.015625)"/>
      </defs>
      <use xlink:href="#DejaVuSans-46"/>
      <use xlink:href="#DejaVuSans-69" transform="translate(50.269531 0)"/>
      <use xlink:href="#DejaVuSans-74" transform="translate(78.052734 0)"/>
      <use xlink:href="#DejaVuSans-6e" transform="translate(117.261719 0)"/>
      <use xlink:href="#DejaVuSans-65" transform="translate(180.640625 0)"/>
      <use xlink:href="#DejaVuSans-73" transform="translate(242.164062 0)"/>
      <use xlink:href="#DejaVuSans-73" transform="translate(294.263672 0)"/>
     </g>
    </g>
   </g>
   <g id="line2d_33">
    <path d="M 73.832727 236.854648 
L 75.464157 239.785304 
L 77.095587 237.553014 
L 78.727017 241.924883 
L 80.358447 237.168617 
L 81.989877 235.546856 
L 83.621307 235.821466 
L 85.252736 237.290757 
L 86.884166 236.552619 
L 88.515596 238.069408 
L 90.147026 235.034455 
L 91.778456 236.92581 
L 93.409886 232.306933 
L 95.041316 230.593098 
L 96.672746 224.06626 
L 98.304175 225.436904 
L 99.935605 219.850275 
L 101.567035 223.61012 
L 103.198465 223.877821 
L 104.829895 221.148243 
L 106.461325 219.568163 
L 108.092755 220.358821 
L 109.724185 219.960028 
L 111.355614 218.402425 
L 112.987044 219.575067 
L 114.618474 213.338003 
L 116.249904 214.913907 
L 117.881334 212.248 
L 121.144194 211.095214 
L 122.775624 209.64696 
L 124.407053 209.534352 
L 126.038483 203.468756 
L 129.301343 199.278912 
L 130.932773 196.14352 
L 132.564203 199.595757 
L 134.195633 195.662647 
L 135.827063 194.754503 
L 137.458492 199.799287 
L 139.089922 197.658885 
L 140.721352 193.543609 
L 142.352782 198.4312 
L 143.984212 190.3449 
L 145.615642 191.263462 
L 147.247072 185.335725 
L 148.878502 195.978311 
L 150.509931 188.762502 
L 152.141361 187.372804 
L 153.772791 184.973019 
L 155.404221 183.983635 
L 157.035651 183.660241 
L 158.667081 182.092191 
L 160.298511 189.839325 
L 161.929941 183.925115 
L 163.56137 179.385824 
L 165.1928 181.367825 
L 166.82423 185.558861 
L 168.45566 178.329305 
L 170.08709 178.789782 
L 171.71852 185.415079 
L 173.34995 178.184878 
L 174.98138 183.977457 
L 176.61281 187.738856 
L 178.244239 184.776201 
L 179.875669 182.292404 
L 181.507099 190.433785 
L 183.138529 184.579942 
L 184.769959 190.69902 
L 188.032819 182.250493 
L 189.664249 184.419238 
L 191.295678 180.682597 
L 192.927108 184.536792 
L 194.558538 184.913707 
L 196.189968 180.616234 
L 199.452828 186.556439 
L 201.084258 180.365092 
L 202.715688 179.285401 
L 204.347117 174.27494 
L 205.978547 176.636863 
L 207.609977 180.62134 
L 209.241407 180.028881 
L 210.872837 183.620312 
L 212.504267 178.007524 
L 214.135697 175.951111 
L 215.767127 185.080339 
L 217.398556 180.343882 
L 219.029986 183.359784 
L 220.661416 177.187239 
L 222.292846 179.201158 
L 223.924276 176.756619 
L 227.187136 166.67537 
L 228.818566 169.546951 
L 230.449995 163.823147 
L 232.081425 169.332509 
L 233.712855 168.439518 
L 235.344285 165.293567 
L 236.975715 165.592947 
L 238.607145 167.264101 
L 240.238575 167.811634 
L 241.870005 168.065776 
L 243.501434 169.788902 
L 245.132864 167.15304 
L 246.764294 163.83751 
L 248.395724 157.678996 
L 250.027154 165.223279 
L 251.658584 161.292346 
L 253.290014 160.779924 
L 254.921444 161.551008 
L 256.552873 163.98934 
L 258.184303 165.025715 
L 259.815733 165.429313 
L 261.447163 168.293166 
L 263.078593 162.65593 
L 264.710023 169.702144 
L 266.341453 167.069981 
L 267.972883 167.015007 
L 269.604312 168.664868 
L 271.235742 161.619831 
L 272.867172 164.422087 
L 274.498602 164.968587 
L 276.130032 162.173095 
L 277.761462 170.41104 
L 279.392892 169.335557 
L 281.024322 166.687663 
L 282.655751 168.926955 
L 284.287181 170.296856 
L 285.918611 163.693419 
L 287.550041 160.207044 
L 289.181471 168.428127 
L 290.812901 164.696719 
L 292.444331 162.024284 
L 294.075761 163.97963 
L 295.70719 167.826901 
L 297.33862 162.780821 
L 298.97005 163.795683 
L 300.60148 163.178598 
L 302.23291 163.830967 
L 305.49577 163.808968 
L 307.1272 160.979587 
L 308.75863 170.643557 
L 310.390059 167.385387 
L 312.021489 165.092187 
L 313.652919 171.89931 
L 315.284349 163.297478 
L 316.915779 160.538009 
L 318.547209 160.149649 
L 320.178639 163.502054 
L 321.810069 165.36437 
L 323.441498 170.62309 
L 325.072928 164.03983 
L 326.704358 162.4066 
L 328.335788 157.210877 
L 329.967218 159.484958 
L 331.598648 164.273428 
L 333.230078 158.526966 
L 334.861508 156.964357 
L 336.492937 158.702867 
L 338.124367 159.432273 
L 339.755797 158.683924 
L 341.387227 155.023954 
L 343.018657 156.47927 
L 346.281517 159.089214 
L 347.912947 148.558797 
L 349.544376 151.153317 
L 351.175806 158.994992 
L 352.807236 157.331364 
L 354.438666 155.441929 
L 356.070096 151.622543 
L 357.701526 157.274919 
L 359.332956 157.60396 
L 360.964386 158.64381 
L 362.595815 158.990025 
L 364.227245 157.435525 
L 365.858675 162.777052 
L 367.490105 157.601426 
L 369.121535 158.793738 
L 370.752965 153.895296 
L 372.384395 153.717202 
L 374.015825 154.369855 
L 375.647254 153.562383 
L 377.278684 157.940509 
L 378.910114 157.802168 
L 380.541544 159.271765 
L 382.172974 155.179315 
L 383.804404 151.804828 
L 385.435834 160.768744 
L 387.067264 157.722143 
L 388.698693 155.412133 
L 390.330123 155.004646 
L 391.961553 153.893312 
L 393.592983 159.092863 
L 395.224413 149.114981 
L 396.855843 117.448381 
L 398.487273 124.086983 
L 398.487273 124.086983 
" clip-path="url(#p9c853b76dc)" style="fill: none; stroke: #0000ff; stroke-width: 1.5; stroke-linecap: square"/>
   </g>
   <g id="line2d_34">
    <path d="M 73.832727 247.571945 
L 75.464157 280.659474 
L 77.095587 250.383582 
L 78.727017 293.24194 
L 80.358447 253.062405 
L 81.989877 241.539352 
L 83.621307 245.927624 
L 85.252736 264.349796 
L 86.884166 253.812989 
L 88.515596 271.507616 
L 90.147026 251.441274 
L 91.778456 277.677628 
L 93.409886 256.83078 
L 95.041316 283.047261 
L 96.672746 261.882696 
L 98.304175 263.321222 
L 99.935605 263.000296 
L 101.567035 277.743598 
L 103.198465 266.833532 
L 104.829895 271.543755 
L 106.461325 272.553288 
L 108.092755 278.141637 
L 109.724185 275.639005 
L 111.355614 276.187933 
L 112.987044 295.488 
L 114.618474 272.432468 
L 116.249904 273.222754 
L 117.881334 267.416477 
L 119.512764 255.193612 
L 121.144194 268.726974 
L 122.775624 271.415328 
L 124.407053 274.386608 
L 126.038483 258.182007 
L 127.669913 265.520591 
L 129.301343 249.554119 
L 130.932773 261.766413 
L 132.564203 266.087157 
L 134.195633 262.010998 
L 135.827063 263.773372 
L 137.458492 275.042001 
L 139.089922 251.447192 
L 140.721352 254.812953 
L 142.352782 267.778992 
L 143.984212 246.189443 
L 145.615642 247.176884 
L 147.247072 242.374284 
L 148.878502 261.5161 
L 150.509931 247.448697 
L 152.141361 241.587984 
L 153.772791 239.599672 
L 155.404221 243.042776 
L 157.035651 244.600725 
L 158.667081 248.737189 
L 160.298511 266.547683 
L 161.929941 261.75446 
L 163.56137 238.543749 
L 165.1928 252.241665 
L 166.82423 255.719431 
L 168.45566 242.348719 
L 170.08709 247.917933 
L 171.71852 245.452097 
L 173.34995 236.913163 
L 176.61281 249.050459 
L 178.244239 241.962803 
L 179.875669 242.30525 
L 181.507099 258.533127 
L 183.138529 246.96624 
L 184.769959 252.863153 
L 186.401389 243.180993 
L 188.032819 243.175363 
L 189.664249 244.192012 
L 191.295678 236.543039 
L 192.927108 252.753537 
L 194.558538 246.057347 
L 196.189968 236.484314 
L 197.821398 244.420232 
L 199.452828 245.41469 
L 201.084258 239.277355 
L 202.715688 235.481198 
L 204.347117 236.623835 
L 205.978547 232.787099 
L 207.609977 238.26359 
L 209.241407 238.633906 
L 210.872837 245.623502 
L 212.504267 247.965572 
L 214.135697 247.594955 
L 215.767127 253.073788 
L 217.398556 246.822693 
L 219.029986 248.902607 
L 220.661416 241.920538 
L 222.292846 241.786877 
L 223.924276 243.373484 
L 227.187136 228.364917 
L 228.818566 234.604665 
L 230.449995 227.575421 
L 232.081425 241.405835 
L 233.712855 229.656674 
L 235.344285 231.553903 
L 236.975715 239.436708 
L 238.607145 242.887284 
L 240.238575 235.858877 
L 241.870005 238.070805 
L 243.501434 246.321106 
L 245.132864 250.027112 
L 246.764294 231.638343 
L 248.395724 223.415197 
L 250.027154 237.214465 
L 251.658584 227.317798 
L 253.290014 228.074977 
L 254.921444 225.129407 
L 256.552873 230.245147 
L 258.184303 233.550553 
L 259.815733 239.031659 
L 261.447163 241.90284 
L 263.078593 229.601432 
L 264.710023 238.893753 
L 266.341453 233.85386 
L 267.972883 233.582572 
L 269.604312 234.301589 
L 271.235742 224.432408 
L 272.867172 235.226161 
L 274.498602 238.741276 
L 276.130032 225.849353 
L 277.761462 238.095856 
L 279.392892 234.07106 
L 281.024322 233.204518 
L 282.655751 237.016578 
L 284.287181 233.651729 
L 285.918611 225.764299 
L 287.550041 222.865936 
L 289.181471 235.246902 
L 290.812901 231.456993 
L 292.444331 229.488479 
L 294.075761 228.169067 
L 295.70719 239.35658 
L 297.33862 227.72729 
L 298.97005 228.410355 
L 300.60148 230.485676 
L 302.23291 232.847102 
L 303.86434 233.047538 
L 305.49577 227.546965 
L 307.1272 224.116922 
L 308.75863 238.651945 
L 310.390059 232.111238 
L 313.652919 241.106025 
L 315.284349 224.357514 
L 316.915779 222.376454 
L 318.547209 225.800624 
L 320.178639 236.870443 
L 321.810069 233.233474 
L 323.441498 240.255967 
L 325.072928 236.737348 
L 326.704358 229.944503 
L 328.335788 222.058658 
L 331.598648 232.201117 
L 333.230078 225.125548 
L 334.861508 225.030041 
L 336.492937 232.330186 
L 338.124367 228.308693 
L 339.755797 235.828097 
L 341.387227 228.718214 
L 343.018657 230.421912 
L 344.650087 230.863875 
L 346.281517 227.39519 
L 347.912947 220.315286 
L 349.544376 218.981231 
L 351.175806 230.40668 
L 352.807236 224.589791 
L 354.438666 225.736496 
L 356.070096 217.777329 
L 357.701526 228.841431 
L 359.332956 226.801129 
L 360.964386 228.412905 
L 362.595815 229.557776 
L 364.227245 223.26037 
L 365.858675 239.489045 
L 369.121535 229.792338 
L 370.752965 225.138145 
L 372.384395 222.300819 
L 374.015825 228.102128 
L 375.647254 227.262914 
L 377.278684 230.716154 
L 378.910114 243.720521 
L 380.541544 234.482838 
L 382.172974 226.302606 
L 383.804404 224.456873 
L 385.435834 232.443696 
L 387.067264 234.814659 
L 388.698693 225.373893 
L 390.330123 229.4207 
L 391.961553 223.152604 
L 393.592983 232.202983 
L 395.224413 224.574998 
L 396.855843 181.328761 
L 398.487273 190.883336 
L 398.487273 190.883336 
" clip-path="url(#p9c853b76dc)"
          style="fill: none; stroke-dasharray: 9.6,2.4,1.5,2.4; stroke-dashoffset: 0; stroke: #008000; stroke-width: 1.5"/>
   </g>
   <g id="line2d_35">
    <path d="M 73.832727 226.137352 
L 75.464157 198.911133 
L 77.095587 224.722445 
L 78.727017 190.607826 
L 80.358447 221.274828 
L 81.989877 229.554361 
L 83.621307 225.715307 
L 85.252736 210.231717 
L 86.884166 219.292249 
L 88.515596 204.6312 
L 90.147026 218.627637 
L 91.778456 196.173993 
L 93.409886 207.783086 
L 95.041316 178.138936 
L 96.672746 186.249824 
L 98.304175 187.552586 
L 99.935605 176.700254 
L 101.567035 169.476643 
L 103.198465 180.922109 
L 104.829895 170.752731 
L 108.092755 162.576005 
L 109.724185 164.281052 
L 111.355614 160.616918 
L 112.987044 143.662133 
L 114.618474 154.243537 
L 116.249904 156.60506 
L 117.881334 157.079524 
L 119.512764 168.138661 
L 121.144194 153.463453 
L 122.775624 147.878592 
L 124.407053 144.682095 
L 126.038483 148.755506 
L 127.669913 137.161551 
L 129.301343 149.003705 
L 130.932773 130.520627 
L 132.564203 133.104358 
L 135.827063 125.735635 
L 137.458492 124.556572 
L 139.089922 143.870578 
L 140.721352 132.274265 
L 142.352782 129.083409 
L 143.984212 134.500358 
L 145.615642 135.35004 
L 147.247072 128.297166 
L 148.878502 130.440521 
L 150.509931 130.076308 
L 152.141361 133.157624 
L 153.772791 130.346366 
L 155.404221 124.924495 
L 157.035651 122.719756 
L 158.667081 115.447193 
L 160.298511 113.130967 
L 161.929941 106.095769 
L 163.56137 120.227899 
L 165.1928 110.493986 
L 166.82423 115.398292 
L 168.45566 114.309891 
L 170.08709 109.66163 
L 171.71852 125.378061 
L 173.34995 119.456594 
L 174.98138 125.043646 
L 176.61281 126.427252 
L 178.244239 127.589599 
L 179.875669 122.279558 
L 181.507099 122.334443 
L 183.138529 122.193644 
L 184.769959 128.534886 
L 186.401389 129.539935 
L 188.032819 121.325622 
L 189.664249 124.646463 
L 191.295678 124.822155 
L 192.927108 116.320048 
L 194.558538 123.770067 
L 196.189968 124.748155 
L 197.821398 122.940793 
L 199.452828 127.698188 
L 201.084258 121.45283 
L 202.715688 123.089603 
L 204.347117 111.926046 
L 205.978547 120.486626 
L 207.609977 122.979091 
L 209.241407 121.423856 
L 210.872837 121.617121 
L 212.504267 108.049477 
L 214.135697 104.307267 
L 215.767127 117.08689 
L 217.398556 113.865072 
L 219.029986 117.816961 
L 220.661416 112.45394 
L 222.292846 116.615438 
L 223.924276 110.139753 
L 225.555706 107.901652 
L 227.187136 104.985824 
L 228.818566 104.489237 
L 230.449995 100.070874 
L 232.081425 97.259184 
L 233.712855 107.222363 
L 235.344285 99.033231 
L 236.975715 91.749187 
L 238.607145 91.640918 
L 240.238575 99.764391 
L 241.870005 98.060746 
L 243.501434 93.256698 
L 245.132864 84.278969 
L 246.764294 96.036677 
L 248.395724 91.942796 
L 250.027154 93.232094 
L 251.658584 95.266895 
L 253.290014 93.48487 
L 254.921444 97.97261 
L 256.552873 97.733532 
L 258.184303 96.500877 
L 259.815733 91.826966 
L 261.447163 94.683493 
L 263.078593 95.710429 
L 264.710023 100.510535 
L 266.341453 100.286102 
L 267.972883 100.447442 
L 269.604312 103.028147 
L 271.235742 98.807254 
L 272.867172 93.618014 
L 274.498602 91.195897 
L 276.130032 98.496838 
L 277.761462 102.726224 
L 279.392892 104.600055 
L 281.024322 100.170808 
L 282.655751 100.837333 
L 284.287181 106.941982 
L 285.918611 101.622538 
L 287.550041 97.548152 
L 289.181471 101.609352 
L 290.812901 97.936445 
L 292.444331 94.560089 
L 294.075761 99.790194 
L 295.70719 96.297223 
L 297.33862 97.834351 
L 298.97005 99.18101 
L 300.60148 95.871519 
L 302.23291 94.814831 
L 303.86434 94.56175 
L 305.49577 100.070972 
L 307.1272 97.842251 
L 308.75863 102.635168 
L 310.390059 102.659536 
L 312.021489 93.617312 
L 313.652919 102.692596 
L 315.284349 102.237443 
L 316.915779 98.699564 
L 320.178639 90.133665 
L 321.810069 97.495265 
L 323.441498 100.990214 
L 325.072928 91.342313 
L 326.704358 94.868696 
L 328.335788 92.363096 
L 329.967218 91.788139 
L 331.598648 96.34574 
L 333.230078 91.928385 
L 334.861508 88.898674 
L 336.492937 85.075549 
L 338.124367 90.555853 
L 339.755797 81.539752 
L 341.387227 81.329693 
L 343.018657 82.536627 
L 344.650087 84.625404 
L 346.281517 90.783239 
L 347.912947 76.802308 
L 349.544376 83.325402 
L 351.175806 87.583304 
L 352.807236 90.072937 
L 354.438666 85.147362 
L 357.701526 85.708407 
L 359.332956 88.406792 
L 360.964386 88.874716 
L 362.595815 88.422275 
L 364.227245 91.61068 
L 367.490105 80.697203 
L 369.121535 87.795138 
L 370.752965 82.652448 
L 372.384395 85.133585 
L 374.015825 80.637582 
L 375.647254 79.861853 
L 377.278684 85.164865 
L 378.910114 71.883816 
L 380.541544 84.060693 
L 382.172974 84.056024 
L 383.804404 79.152784 
L 385.435834 89.093793 
L 387.067264 80.629627 
L 388.698693 85.450374 
L 390.330123 80.588593 
L 391.961553 84.634019 
L 393.592983 85.982743 
L 395.224413 73.654965 
L 396.855843 53.568 
L 398.487273 57.29063 
L 398.487273 57.29063 
" clip-path="url(#p9c853b76dc)"
          style="fill: none; stroke-dasharray: 9.6,2.4,1.5,2.4; stroke-dashoffset: 0; stroke: #008000; stroke-width: 1.5"/>
   </g>
   <g id="line2d_36">
    <path d="M 73.832727 230.353309 
L 75.464157 208.328447 
L 85.252736 208.328447 
L 86.884166 132.413037 
L 104.829895 132.413037 
L 106.461325 129.021989 
L 119.512764 129.021989 
L 121.144194 93.090435 
L 139.089922 93.090435 
L 140.721352 73.09003 
L 245.132864 73.09003 
L 246.764294 62.619565 
L 395.224413 62.619565 
L 396.855843 76.145365 
L 398.487273 76.145365 
L 398.487273 76.145365 
" clip-path="url(#p9c853b76dc)" style="fill: none; stroke: #ff0000; stroke-width: 1.5; stroke-linecap: square"/>
   </g>
   <g id="patch_3">
    <path d="M 57.6 307.584 
L 57.6 41.472 
" style="fill: none; stroke: #000000; stroke-width: 0.8; stroke-linejoin: miter; stroke-linecap: square"/>
   </g>
   <g id="patch_4">
    <path d="M 414.72 307.584 
L 414.72 41.472 
" style="fill: none; stroke: #000000; stroke-width: 0.8; stroke-linejoin: miter; stroke-linecap: square"/>
   </g>
   <g id="patch_5">
    <path d="M 57.6 307.584 
L 414.72 307.584 
" style="fill: none; stroke: #000000; stroke-width: 0.8; stroke-linejoin: miter; stroke-linecap: square"/>
   </g>
   <g id="patch_6">
    <path d="M 57.6 41.472 
L 414.72 41.472 
" style="fill: none; stroke: #000000; stroke-width: 0.8; stroke-linejoin: miter; stroke-linecap: square"/>
   </g>
   <g id="text_19">
    <!-- Population's average and best fitness -->
    <g transform="translate(123.529687 35.472) scale(0.12 -0.12)">
     <defs>
      <path id="DejaVuSans-50" d="M 1259 4147 
L 1259 2394 
L 2053 2394 
Q 2494 2394 2734 2622 
Q 2975 2850 2975 3272 
Q 2975 3691 2734 3919 
Q 2494 4147 2053 4147 
L 1259 4147 
z
M 628 4666 
L 2053 4666 
Q 2838 4666 3239 4311 
Q 3641 3956 3641 3272 
Q 3641 2581 3239 2228 
Q 2838 1875 2053 1875 
L 1259 1875 
L 1259 0 
L 628 0 
L 628 4666 
z
" transform="scale(0.015625)"/>
      <path id="DejaVuSans-70" d="M 1159 525 
L 1159 -1331 
L 581 -1331 
L 581 3500 
L 1159 3500 
L 1159 2969 
Q 1341 3281 1617 3432 
Q 1894 3584 2278 3584 
Q 2916 3584 3314 3078 
Q 3713 2572 3713 1747 
Q 3713 922 3314 415 
Q 2916 -91 2278 -91 
Q 1894 -91 1617 61 
Q 1341 213 1159 525 
z
M 3116 1747 
Q 3116 2381 2855 2742 
Q 2594 3103 2138 3103 
Q 1681 3103 1420 2742 
Q 1159 2381 1159 1747 
Q 1159 1113 1420 752 
Q 1681 391 2138 391 
Q 2594 391 2855 752 
Q 3116 1113 3116 1747 
z
" transform="scale(0.015625)"/>
      <path id="DejaVuSans-75" d="M 544 1381 
L 544 3500 
L 1119 3500 
L 1119 1403 
Q 1119 906 1312 657 
Q 1506 409 1894 409 
Q 2359 409 2629 706 
Q 2900 1003 2900 1516 
L 2900 3500 
L 3475 3500 
L 3475 0 
L 2900 0 
L 2900 538 
Q 2691 219 2414 64 
Q 2138 -91 1772 -91 
Q 1169 -91 856 284 
Q 544 659 544 1381 
z
M 1991 3584 
L 1991 3584 
z
" transform="scale(0.015625)"/>
      <path id="DejaVuSans-6c" d="M 603 4863 
L 1178 4863 
L 1178 0 
L 603 0 
L 603 4863 
z
" transform="scale(0.015625)"/>
      <path id="DejaVuSans-27" d="M 1147 4666 
L 1147 2931 
L 616 2931 
L 616 4666 
L 1147 4666 
z
" transform="scale(0.015625)"/>
      <path id="DejaVuSans-20" transform="scale(0.015625)"/>
      <path id="DejaVuSans-76" d="M 191 3500 
L 800 3500 
L 1894 563 
L 2988 3500 
L 3597 3500 
L 2284 0 
L 1503 0 
L 191 3500 
z
" transform="scale(0.015625)"/>
      <path id="DejaVuSans-67" d="M 2906 1791 
Q 2906 2416 2648 2759 
Q 2391 3103 1925 3103 
Q 1463 3103 1205 2759 
Q 947 2416 947 1791 
Q 947 1169 1205 825 
Q 1463 481 1925 481 
Q 2391 481 2648 825 
Q 2906 1169 2906 1791 
z
M 3481 434 
Q 3481 -459 3084 -895 
Q 2688 -1331 1869 -1331 
Q 1566 -1331 1297 -1286 
Q 1028 -1241 775 -1147 
L 775 -588 
Q 1028 -725 1275 -790 
Q 1522 -856 1778 -856 
Q 2344 -856 2625 -561 
Q 2906 -266 2906 331 
L 2906 616 
Q 2728 306 2450 153 
Q 2172 0 1784 0 
Q 1141 0 747 490 
Q 353 981 353 1791 
Q 353 2603 747 3093 
Q 1141 3584 1784 3584 
Q 2172 3584 2450 3431 
Q 2728 3278 2906 2969 
L 2906 3500 
L 3481 3500 
L 3481 434 
z
" transform="scale(0.015625)"/>
      <path id="DejaVuSans-64" d="M 2906 2969 
L 2906 4863 
L 3481 4863 
L 3481 0 
L 2906 0 
L 2906 525 
Q 2725 213 2448 61 
Q 2172 -91 1784 -91 
Q 1150 -91 751 415 
Q 353 922 353 1747 
Q 353 2572 751 3078 
Q 1150 3584 1784 3584 
Q 2172 3584 2448 3432 
Q 2725 3281 2906 2969 
z
M 947 1747 
Q 947 1113 1208 752 
Q 1469 391 1925 391 
Q 2381 391 2643 752 
Q 2906 1113 2906 1747 
Q 2906 2381 2643 2742 
Q 2381 3103 1925 3103 
Q 1469 3103 1208 2742 
Q 947 2381 947 1747 
z
" transform="scale(0.015625)"/>
      <path id="DejaVuSans-62" d="M 3116 1747 
Q 3116 2381 2855 2742 
Q 2594 3103 2138 3103 
Q 1681 3103 1420 2742 
Q 1159 2381 1159 1747 
Q 1159 1113 1420 752 
Q 1681 391 2138 391 
Q 2594 391 2855 752 
Q 3116 1113 3116 1747 
z
M 1159 2969 
Q 1341 3281 1617 3432 
Q 1894 3584 2278 3584 
Q 2916 3584 3314 3078 
Q 3713 2572 3713 1747 
Q 3713 922 3314 415 
Q 2916 -91 2278 -91 
Q 1894 -91 1617 61 
Q 1341 213 1159 525 
L 1159 0 
L 581 0 
L 581 4863 
L 1159 4863 
L 1159 2969 
z
" transform="scale(0.015625)"/>
      <path id="DejaVuSans-66" d="M 2375 4863 
L 2375 4384 
L 1825 4384 
Q 1516 4384 1395 4259 
Q 1275 4134 1275 3809 
L 1275 3500 
L 2222 3500 
L 2222 3053 
L 1275 3053 
L 1275 0 
L 697 0 
L 697 3053 
L 147 3053 
L 147 3500 
L 697 3500 
L 697 3744 
Q 697 4328 969 4595 
Q 1241 4863 1831 4863 
L 2375 4863 
z
" transform="scale(0.015625)"/>
     </defs>
     <use xlink:href="#DejaVuSans-50"/>
     <use xlink:href="#DejaVuSans-6f" transform="translate(56.677734 0)"/>
     <use xlink:href="#DejaVuSans-70" transform="translate(117.859375 0)"/>
     <use xlink:href="#DejaVuSans-75" transform="translate(181.335938 0)"/>
     <use xlink:href="#DejaVuSans-6c" transform="translate(244.714844 0)"/>
     <use xlink:href="#DejaVuSans-61" transform="translate(272.498047 0)"/>
     <use xlink:href="#DejaVuSans-74" transform="translate(333.777344 0)"/>
     <use xlink:href="#DejaVuSans-69" transform="translate(372.986328 0)"/>
     <use xlink:href="#DejaVuSans-6f" transform="translate(400.769531 0)"/>
     <use xlink:href="#DejaVuSans-6e" transform="translate(461.951172 0)"/>
     <use xlink:href="#DejaVuSans-27" transform="translate(525.330078 0)"/>
     <use xlink:href="#DejaVuSans-73" transform="translate(552.820312 0)"/>
     <use xlink:href="#DejaVuSans-20" transform="translate(604.919922 0)"/>
     <use xlink:href="#DejaVuSans-61" transform="translate(636.707031 0)"/>
     <use xlink:href="#DejaVuSans-76" transform="translate(697.986328 0)"/>
     <use xlink:href="#DejaVuSans-65" transform="translate(757.166016 0)"/>
     <use xlink:href="#DejaVuSans-72" transform="translate(818.689453 0)"/>
     <use xlink:href="#DejaVuSans-61" transform="translate(859.802734 0)"/>
     <use xlink:href="#DejaVuSans-67" transform="translate(921.082031 0)"/>
     <use xlink:href="#DejaVuSans-65" transform="translate(984.558594 0)"/>
     <use xlink:href="#DejaVuSans-20" transform="translate(1046.082031 0)"/>
     <use xlink:href="#DejaVuSans-61" transform="translate(1077.869141 0)"/>
     <use xlink:href="#DejaVuSans-6e" transform="translate(1139.148438 0)"/>
     <use xlink:href="#DejaVuSans-64" transform="translate(1202.527344 0)"/>
     <use xlink:href="#DejaVuSans-20" transform="translate(1266.003906 0)"/>
     <use xlink:href="#DejaVuSans-62" transform="translate(1297.791016 0)"/>
     <use xlink:href="#DejaVuSans-65" transform="translate(1361.267578 0)"/>
     <use xlink:href="#DejaVuSans-73" transform="translate(1422.791016 0)"/>
     <use xlink:href="#DejaVuSans-74" transform="translate(1474.890625 0)"/>
     <use xlink:href="#DejaVuSans-20" transform="translate(1514.099609 0)"/>
     <use xlink:href="#DejaVuSans-66" transform="translate(1545.886719 0)"/>
     <use xlink:href="#DejaVuSans-69" transform="translate(1581.091797 0)"/>
     <use xlink:href="#DejaVuSans-74" transform="translate(1608.875 0)"/>
     <use xlink:href="#DejaVuSans-6e" transform="translate(1648.083984 0)"/>
     <use xlink:href="#DejaVuSans-65" transform="translate(1711.462891 0)"/>
     <use xlink:href="#DejaVuSans-73" transform="translate(1772.986328 0)"/>
     <use xlink:href="#DejaVuSans-73" transform="translate(1825.085938 0)"/>
    </g>
   </g>
   <g id="legend_1">
    <g id="patch_7">
     <path d="M 334.779375 302.584 
L 407.72 302.584 
Q 409.72 302.584 409.72 300.584 
L 409.72 242.8715 
Q 409.72 240.8715 407.72 240.8715 
L 334.779375 240.8715 
Q 332.779375 240.8715 332.779375 242.8715 
L 332.779375 300.584 
Q 332.779375 302.584 334.779375 302.584 
z
" style="fill: #ffffff; opacity: 0.8; stroke: #cccccc; stroke-linejoin: miter"/>
    </g>
    <g id="line2d_37">
     <path d="M 336.779375 248.969937 
L 346.779375 248.969937 
L 356.779375 248.969937 
" style="fill: none; stroke: #0000ff; stroke-width: 1.5; stroke-linecap: square"/>
    </g>
    <g id="text_20">
     <!-- average -->
     <g transform="translate(364.779375 252.469937) scale(0.1 -0.1)">
      <use xlink:href="#DejaVuSans-61"/>
      <use xlink:href="#DejaVuSans-76" transform="translate(61.279297 0)"/>
      <use xlink:href="#DejaVuSans-65" transform="translate(120.458984 0)"/>
      <use xlink:href="#DejaVuSans-72" transform="translate(181.982422 0)"/>
      <use xlink:href="#DejaVuSans-61" transform="translate(223.095703 0)"/>
      <use xlink:href="#DejaVuSans-67" transform="translate(284.375 0)"/>
      <use xlink:href="#DejaVuSans-65" transform="translate(347.851562 0)"/>
     </g>
    </g>
    <g id="line2d_38">
     <path d="M 336.779375 263.648062 
L 346.779375 263.648062 
L 356.779375 263.648062 
" style="fill: none; stroke-dasharray: 9.6,2.4,1.5,2.4; stroke-dashoffset: 0; stroke: #008000; stroke-width: 1.5"/>
    </g>
    <g id="text_21">
     <!-- -1 sd -->
     <g transform="translate(364.779375 267.148062) scale(0.1 -0.1)">
      <defs>
       <path id="DejaVuSans-2d" d="M 313 2009 
L 1997 2009 
L 1997 1497 
L 313 1497 
L 313 2009 
z
" transform="scale(0.015625)"/>
      </defs>
      <use xlink:href="#DejaVuSans-2d"/>
      <use xlink:href="#DejaVuSans-31" transform="translate(36.083984 0)"/>
      <use xlink:href="#DejaVuSans-20" transform="translate(99.707031 0)"/>
      <use xlink:href="#DejaVuSans-73" transform="translate(131.494141 0)"/>
      <use xlink:href="#DejaVuSans-64" transform="translate(183.59375 0)"/>
     </g>
    </g>
    <g id="line2d_39">
     <path d="M 336.779375 278.326187 
L 346.779375 278.326187 
L 356.779375 278.326187 
" style="fill: none; stroke-dasharray: 9.6,2.4,1.5,2.4; stroke-dashoffset: 0; stroke: #008000; stroke-width: 1.5"/>
    </g>
    <g id="text_22">
     <!-- +1 sd -->
     <g transform="translate(364.779375 281.826187) scale(0.1 -0.1)">
      <defs>
       <path id="DejaVuSans-2b" d="M 2944 4013 
L 2944 2272 
L 4684 2272 
L 4684 1741 
L 2944 1741 
L 2944 0 
L 2419 0 
L 2419 1741 
L 678 1741 
L 678 2272 
L 2419 2272 
L 2419 4013 
L 2944 4013 
z
" transform="scale(0.015625)"/>
      </defs>
      <use xlink:href="#DejaVuSans-2b"/>
      <use xlink:href="#DejaVuSans-31" transform="translate(83.789062 0)"/>
      <use xlink:href="#DejaVuSans-20" transform="translate(147.412109 0)"/>
      <use xlink:href="#DejaVuSans-73" transform="translate(179.199219 0)"/>
      <use xlink:href="#DejaVuSans-64" transform="translate(231.298828 0)"/>
     </g>
    </g>
    <g id="line2d_40">
     <path d="M 336.779375 293.004312 
L 346.779375 293.004312 
L 356.779375 293.004312 
" style="fill: none; stroke: #ff0000; stroke-width: 1.5; stroke-linecap: square"/>
    </g>
    <g id="text_23">
     <!-- best -->
     <g transform="translate(364.779375 296.504312) scale(0.1 -0.1)">
      <use xlink:href="#DejaVuSans-62"/>
      <use xlink:href="#DejaVuSans-65" transform="translate(63.476562 0)"/>
      <use xlink:href="#DejaVuSans-73" transform="translate(125 0)"/>
      <use xlink:href="#DejaVuSans-74" transform="translate(177.099609 0)"/>
     </g>
    </g>
   </g>
  </g>
 </g>
 <defs>
  <clipPath id="p9c853b76dc">
   <rect x="57.6" y="41.472" width="357.12" height="266.112"/>
  </clipPath>
 </defs>
</svg>
