<?xml version="1.0" encoding="utf-8" standalone="no"?>
<!DOCTYPE svg PUBLIC "-//W3C//DTD SVG 1.1//EN"
        "http://www.w3.org/Graphics/SVG/1.1/DTD/svg11.dtd">
<svg xmlns:xlink="http://www.w3.org/1999/xlink" width="460.8pt" height="345.6pt" viewBox="0 0 460.8 345.6"
     xmlns="http://www.w3.org/2000/svg" version="1.1">
    <metadata>
        <rdf:RDF xmlns:dc="http://purl.org/dc/elements/1.1/" xmlns:cc="http://creativecommons.org/ns#"
                 xmlns:rdf="http://www.w3.org/1999/02/22-rdf-syntax-ns#">
            <cc:Work>
                <dc:type rdf:resource="http://purl.org/dc/dcmitype/StillImage"/>
                <dc:date>2026-01-10T01:06:50.332381</dc:date>
                <dc:format>image/svg+xml</dc:format>
                <dc:creator>
                    <cc:Agent>
                        <dc:title>Matplotlib v3.10.7, https://matplotlib.org/</dc:title>
                    </cc:Agent>
                </dc:creator>
            </cc:Work>
        </rdf:RDF>
    </metadata>
    <defs>
        <style type="text/css">*{stroke-linejoin: round; stroke-linecap: butt}</style>
    </defs>
    <g id="figure_1">
        <g id="patch_1">
            <path d="M 0 345.6
L 460.8 345.6 
L 460.8 0 
L 0 0 
z
" style="fill: #ffffff"/>
        </g>
        <g id="axes_1">
            <g id="patch_2">
                <path d="M 57.6 307.584
L 414.72 307.584 
L 414.72 41.472 
L 57.6 41.472 
z
" style="fill: #ffffff"/>
            </g>
            <g id="matplotlib.axis_1">
                <g id="xtick_1">
                    <g id="line2d_1">
                        <path d="M 73.832727 307.584
L 73.832727 41.472 
" clip-path="url(#pa028298de5)" style="fill: none; stroke: #b0b0b0; stroke-width: 0.8; stroke-linecap: square"/>
                    </g>
                    <g id="line2d_2">
                        <defs>
                            <path id="m45e2cce74d" d="M 0 0
L 0 3.5 
" style="stroke: #000000; stroke-width: 0.8"/>
                        </defs>
                        <g>
                            <use xlink:href="#m45e2cce74d" x="73.832727" y="307.584"
                                 style="stroke: #000000; stroke-width: 0.8"/>
                        </g>
                    </g>
                    <g id="text_1">
                        <!-- 0 -->
                        <g transform="translate(70.651477 322.182437) scale(0.1 -0.1)">
                            <defs>
                                <path id="DejaVuSans-30" d="M 2034 4250
Q 1547 4250 1301 3770 
Q 1056 3291 1056 2328 
Q 1056 1369 1301 889 
Q 1547 409 2034 409 
Q 2525 409 2770 889 
Q 3016 1369 3016 2328 
Q 3016 3291 2770 3770 
Q 2525 4250 2034 4250 
z
M 2034 4750 
Q 2819 4750 3233 4129 
Q 3647 3509 3647 2328 
Q 3647 1150 3233 529 
Q 2819 -91 2034 -91 
Q 1250 -91 836 529 
Q 422 1150 422 2328 
Q 422 3509 836 4129 
Q 1250 4750 2034 4750 
z
" transform="scale(0.015625)"/>
                            </defs>
                            <use xlink:href="#DejaVuSans-30"/>
                        </g>
                    </g>
                </g>
                <g id="xtick_2">
                    <g id="line2d_3">
                        <path d="M 128.122785 307.584
L 128.122785 41.472 
" clip-path="url(#pa028298de5)" style="fill: none; stroke: #b0b0b0; stroke-width: 0.8; stroke-linecap: square"/>
                    </g>
                    <g id="line2d_4">
                        <g>
                            <use xlink:href="#m45e2cce74d" x="128.122785" y="307.584"
                                 style="stroke: #000000; stroke-width: 0.8"/>
                        </g>
                    </g>
                    <g id="text_2">
                        <!-- 50 -->
                        <g transform="translate(121.760285 322.182437) scale(0.1 -0.1)">
                            <defs>
                                <path id="DejaVuSans-35" d="M 691 4666
L 3169 4666 
L 3169 4134 
L 1269 4134 
L 1269 2991 
Q 1406 3038 1543 3061 
Q 1681 3084 1819 3084 
Q 2600 3084 3056 2656 
Q 3513 2228 3513 1497 
Q 3513 744 3044 326 
Q 2575 -91 1722 -91 
Q 1428 -91 1123 -41 
Q 819 9 494 109 
L 494 744 
Q 775 591 1075 516 
Q 1375 441 1709 441 
Q 2250 441 2565 725 
Q 2881 1009 2881 1497 
Q 2881 1984 2565 2268 
Q 2250 2553 1709 2553 
Q 1456 2553 1204 2497 
Q 953 2441 691 2322 
L 691 4666 
z
" transform="scale(0.015625)"/>
                            </defs>
                            <use xlink:href="#DejaVuSans-35"/>
                            <use xlink:href="#DejaVuSans-30" transform="translate(63.623047 0)"/>
                        </g>
                    </g>
                </g>
                <g id="xtick_3">
                    <g id="line2d_5">
                        <path d="M 182.412843 307.584
L 182.412843 41.472 
" clip-path="url(#pa028298de5)" style="fill: none; stroke: #b0b0b0; stroke-width: 0.8; stroke-linecap: square"/>
                    </g>
                    <g id="line2d_6">
                        <g>
                            <use xlink:href="#m45e2cce74d" x="182.412843" y="307.584"
                                 style="stroke: #000000; stroke-width: 0.8"/>
                        </g>
                    </g>
                    <g id="text_3">
                        <!-- 100 -->
                        <g transform="translate(172.869093 322.182437) scale(0.1 -0.1)">
                            <defs>
                                <path id="DejaVuSans-31" d="M 794 531
L 1825 531 
L 1825 4091 
L 703 3866 
L 703 4441 
L 1819 4666 
L 2450 4666 
L 2450 531 
L 3481 531 
L 3481 0 
L 794 0 
L 794 531 
z
" transform="scale(0.015625)"/>
                            </defs>
                            <use xlink:href="#DejaVuSans-31"/>
                            <use xlink:href="#DejaVuSans-30" transform="translate(63.623047 0)"/>
                            <use xlink:href="#DejaVuSans-30" transform="translate(127.246094 0)"/>
                        </g>
                    </g>
                </g>
                <g id="xtick_4">
                    <g id="line2d_7">
                        <path d="M 236.702901 307.584
L 236.702901 41.472 
" clip-path="url(#pa028298de5)" style="fill: none; stroke: #b0b0b0; stroke-width: 0.8; stroke-linecap: square"/>
                    </g>
                    <g id="line2d_8">
                        <g>
                            <use xlink:href="#m45e2cce74d" x="236.702901" y="307.584"
                                 style="stroke: #000000; stroke-width: 0.8"/>
                        </g>
                    </g>
                    <g id="text_4">
                        <!-- 150 -->
                        <g transform="translate(227.159151 322.182437) scale(0.1 -0.1)">
                            <use xlink:href="#DejaVuSans-31"/>
                            <use xlink:href="#DejaVuSans-35" transform="translate(63.623047 0)"/>
                            <use xlink:href="#DejaVuSans-30" transform="translate(127.246094 0)"/>
                        </g>
                    </g>
                </g>
                <g id="xtick_5">
                    <g id="line2d_9">
                        <path d="M 290.992958 307.584
L 290.992958 41.472 
" clip-path="url(#pa028298de5)" style="fill: none; stroke: #b0b0b0; stroke-width: 0.8; stroke-linecap: square"/>
                    </g>
                    <g id="line2d_10">
                        <g>
                            <use xlink:href="#m45e2cce74d" x="290.992958" y="307.584"
                                 style="stroke: #000000; stroke-width: 0.8"/>
                        </g>
                    </g>
                    <g id="text_5">
                        <!-- 200 -->
                        <g transform="translate(281.449208 322.182437) scale(0.1 -0.1)">
                            <defs>
                                <path id="DejaVuSans-32" d="M 1228 531
L 3431 531 
L 3431 0 
L 469 0 
L 469 531 
Q 828 903 1448 1529 
Q 2069 2156 2228 2338 
Q 2531 2678 2651 2914 
Q 2772 3150 2772 3378 
Q 2772 3750 2511 3984 
Q 2250 4219 1831 4219 
Q 1534 4219 1204 4116 
Q 875 4013 500 3803 
L 500 4441 
Q 881 4594 1212 4672 
Q 1544 4750 1819 4750 
Q 2544 4750 2975 4387 
Q 3406 4025 3406 3419 
Q 3406 3131 3298 2873 
Q 3191 2616 2906 2266 
Q 2828 2175 2409 1742 
Q 1991 1309 1228 531 
z
" transform="scale(0.015625)"/>
                            </defs>
                            <use xlink:href="#DejaVuSans-32"/>
                            <use xlink:href="#DejaVuSans-30" transform="translate(63.623047 0)"/>
                            <use xlink:href="#DejaVuSans-30" transform="translate(127.246094 0)"/>
                        </g>
                    </g>
                </g>
                <g id="xtick_6">
                    <g id="line2d_11">
                        <path d="M 345.283016 307.584
L 345.283016 41.472 
" clip-path="url(#pa028298de5)" style="fill: none; stroke: #b0b0b0; stroke-width: 0.8; stroke-linecap: square"/>
                    </g>
                    <g id="line2d_12">
                        <g>
                            <use xlink:href="#m45e2cce74d" x="345.283016" y="307.584"
                                 style="stroke: #000000; stroke-width: 0.8"/>
                        </g>
                    </g>
                    <g id="text_6">
                        <!-- 250 -->
                        <g transform="translate(335.739266 322.182437) scale(0.1 -0.1)">
                            <use xlink:href="#DejaVuSans-32"/>
                            <use xlink:href="#DejaVuSans-35" transform="translate(63.623047 0)"/>
                            <use xlink:href="#DejaVuSans-30" transform="translate(127.246094 0)"/>
                        </g>
                    </g>
                </g>
                <g id="xtick_7">
                    <g id="line2d_13">
                        <path d="M 399.573074 307.584
L 399.573074 41.472 
" clip-path="url(#pa028298de5)" style="fill: none; stroke: #b0b0b0; stroke-width: 0.8; stroke-linecap: square"/>
                    </g>
                    <g id="line2d_14">
                        <g>
                            <use xlink:href="#m45e2cce74d" x="399.573074" y="307.584"
                                 style="stroke: #000000; stroke-width: 0.8"/>
                        </g>
                    </g>
                    <g id="text_7">
                        <!-- 300 -->
                        <g transform="translate(390.029324 322.182437) scale(0.1 -0.1)">
                            <defs>
                                <path id="DejaVuSans-33" d="M 2597 2516
Q 3050 2419 3304 2112 
Q 3559 1806 3559 1356 
Q 3559 666 3084 287 
Q 2609 -91 1734 -91 
Q 1441 -91 1130 -33 
Q 819 25 488 141 
L 488 750 
Q 750 597 1062 519 
Q 1375 441 1716 441 
Q 2309 441 2620 675 
Q 2931 909 2931 1356 
Q 2931 1769 2642 2001 
Q 2353 2234 1838 2234 
L 1294 2234 
L 1294 2753 
L 1863 2753 
Q 2328 2753 2575 2939 
Q 2822 3125 2822 3475 
Q 2822 3834 2567 4026 
Q 2313 4219 1838 4219 
Q 1578 4219 1281 4162 
Q 984 4106 628 3988 
L 628 4550 
Q 988 4650 1302 4700 
Q 1616 4750 1894 4750 
Q 2613 4750 3031 4423 
Q 3450 4097 3450 3541 
Q 3450 3153 3228 2886 
Q 3006 2619 2597 2516 
z
" transform="scale(0.015625)"/>
                            </defs>
                            <use xlink:href="#DejaVuSans-33"/>
                            <use xlink:href="#DejaVuSans-30" transform="translate(63.623047 0)"/>
                            <use xlink:href="#DejaVuSans-30" transform="translate(127.246094 0)"/>
                        </g>
                    </g>
                </g>
                <g id="text_8">
                    <!-- Generations -->
                    <g transform="translate(205.662344 335.860562) scale(0.1 -0.1)">
                        <defs>
                            <path id="DejaVuSans-47" d="M 3809 666
L 3809 1919 
L 2778 1919 
L 2778 2438 
L 4434 2438 
L 4434 434 
Q 4069 175 3628 42 
Q 3188 -91 2688 -91 
Q 1594 -91 976 548 
Q 359 1188 359 2328 
Q 359 3472 976 4111 
Q 1594 4750 2688 4750 
Q 3144 4750 3555 4637 
Q 3966 4525 4313 4306 
L 4313 3634 
Q 3963 3931 3569 4081 
Q 3175 4231 2741 4231 
Q 1884 4231 1454 3753 
Q 1025 3275 1025 2328 
Q 1025 1384 1454 906 
Q 1884 428 2741 428 
Q 3075 428 3337 486 
Q 3600 544 3809 666 
z
" transform="scale(0.015625)"/>
                            <path id="DejaVuSans-65" d="M 3597 1894
L 3597 1613 
L 953 1613 
Q 991 1019 1311 708 
Q 1631 397 2203 397 
Q 2534 397 2845 478 
Q 3156 559 3463 722 
L 3463 178 
Q 3153 47 2828 -22 
Q 2503 -91 2169 -91 
Q 1331 -91 842 396 
Q 353 884 353 1716 
Q 353 2575 817 3079 
Q 1281 3584 2069 3584 
Q 2775 3584 3186 3129 
Q 3597 2675 3597 1894 
z
M 3022 2063 
Q 3016 2534 2758 2815 
Q 2500 3097 2075 3097 
Q 1594 3097 1305 2825 
Q 1016 2553 972 2059 
L 3022 2063 
z
" transform="scale(0.015625)"/>
                            <path id="DejaVuSans-6e" d="M 3513 2113
L 3513 0 
L 2938 0 
L 2938 2094 
Q 2938 2591 2744 2837 
Q 2550 3084 2163 3084 
Q 1697 3084 1428 2787 
Q 1159 2491 1159 1978 
L 1159 0 
L 581 0 
L 581 3500 
L 1159 3500 
L 1159 2956 
Q 1366 3272 1645 3428 
Q 1925 3584 2291 3584 
Q 2894 3584 3203 3211 
Q 3513 2838 3513 2113 
z
" transform="scale(0.015625)"/>
                            <path id="DejaVuSans-72" d="M 2631 2963
Q 2534 3019 2420 3045 
Q 2306 3072 2169 3072 
Q 1681 3072 1420 2755 
Q 1159 2438 1159 1844 
L 1159 0 
L 581 0 
L 581 3500 
L 1159 3500 
L 1159 2956 
Q 1341 3275 1631 3429 
Q 1922 3584 2338 3584 
Q 2397 3584 2469 3576 
Q 2541 3569 2628 3553 
L 2631 2963 
z
" transform="scale(0.015625)"/>
                            <path id="DejaVuSans-61" d="M 2194 1759
Q 1497 1759 1228 1600 
Q 959 1441 959 1056 
Q 959 750 1161 570 
Q 1363 391 1709 391 
Q 2188 391 2477 730 
Q 2766 1069 2766 1631 
L 2766 1759 
L 2194 1759 
z
M 3341 1997 
L 3341 0 
L 2766 0 
L 2766 531 
Q 2569 213 2275 61 
Q 1981 -91 1556 -91 
Q 1019 -91 701 211 
Q 384 513 384 1019 
Q 384 1609 779 1909 
Q 1175 2209 1959 2209 
L 2766 2209 
L 2766 2266 
Q 2766 2663 2505 2880 
Q 2244 3097 1772 3097 
Q 1472 3097 1187 3025 
Q 903 2953 641 2809 
L 641 3341 
Q 956 3463 1253 3523 
Q 1550 3584 1831 3584 
Q 2591 3584 2966 3190 
Q 3341 2797 3341 1997 
z
" transform="scale(0.015625)"/>
                            <path id="DejaVuSans-74" d="M 1172 4494
L 1172 3500 
L 2356 3500 
L 2356 3053 
L 1172 3053 
L 1172 1153 
Q 1172 725 1289 603 
Q 1406 481 1766 481 
L 2356 481 
L 2356 0 
L 1766 0 
Q 1100 0 847 248 
Q 594 497 594 1153 
L 594 3053 
L 172 3053 
L 172 3500 
L 594 3500 
L 594 4494 
L 1172 4494 
z
" transform="scale(0.015625)"/>
                            <path id="DejaVuSans-69" d="M 603 3500
L 1178 3500 
L 1178 0 
L 603 0 
L 603 3500 
z
M 603 4863 
L 1178 4863 
L 1178 4134 
L 603 4134 
L 603 4863 
z
" transform="scale(0.015625)"/>
                            <path id="DejaVuSans-6f" d="M 1959 3097
Q 1497 3097 1228 2736 
Q 959 2375 959 1747 
Q 959 1119 1226 758 
Q 1494 397 1959 397 
Q 2419 397 2687 759 
Q 2956 1122 2956 1747 
Q 2956 2369 2687 2733 
Q 2419 3097 1959 3097 
z
M 1959 3584 
Q 2709 3584 3137 3096 
Q 3566 2609 3566 1747 
Q 3566 888 3137 398 
Q 2709 -91 1959 -91 
Q 1206 -91 779 398 
Q 353 888 353 1747 
Q 353 2609 779 3096 
Q 1206 3584 1959 3584 
z
" transform="scale(0.015625)"/>
                            <path id="DejaVuSans-73" d="M 2834 3397
L 2834 2853 
Q 2591 2978 2328 3040 
Q 2066 3103 1784 3103 
Q 1356 3103 1142 2972 
Q 928 2841 928 2578 
Q 928 2378 1081 2264 
Q 1234 2150 1697 2047 
L 1894 2003 
Q 2506 1872 2764 1633 
Q 3022 1394 3022 966 
Q 3022 478 2636 193 
Q 2250 -91 1575 -91 
Q 1294 -91 989 -36 
Q 684 19 347 128 
L 347 722 
Q 666 556 975 473 
Q 1284 391 1588 391 
Q 1994 391 2212 530 
Q 2431 669 2431 922 
Q 2431 1156 2273 1281 
Q 2116 1406 1581 1522 
L 1381 1569 
Q 847 1681 609 1914 
Q 372 2147 372 2553 
Q 372 3047 722 3315 
Q 1072 3584 1716 3584 
Q 2034 3584 2315 3537 
Q 2597 3491 2834 3397 
z
" transform="scale(0.015625)"/>
                        </defs>
                        <use xlink:href="#DejaVuSans-47"/>
                        <use xlink:href="#DejaVuSans-65" transform="translate(77.490234 0)"/>
                        <use xlink:href="#DejaVuSans-6e" transform="translate(139.013672 0)"/>
                        <use xlink:href="#DejaVuSans-65" transform="translate(202.392578 0)"/>
                        <use xlink:href="#DejaVuSans-72" transform="translate(263.916016 0)"/>
                        <use xlink:href="#DejaVuSans-61" transform="translate(305.029297 0)"/>
                        <use xlink:href="#DejaVuSans-74" transform="translate(366.308594 0)"/>
                        <use xlink:href="#DejaVuSans-69" transform="translate(405.517578 0)"/>
                        <use xlink:href="#DejaVuSans-6f" transform="translate(433.300781 0)"/>
                        <use xlink:href="#DejaVuSans-6e" transform="translate(494.482422 0)"/>
                        <use xlink:href="#DejaVuSans-73" transform="translate(557.861328 0)"/>
                    </g>
                </g>
            </g>
            <g id="matplotlib.axis_2">
                <g id="ytick_1">
                    <g id="line2d_15">
                        <path d="M 57.6 280.679231
L 414.72 280.679231 
" clip-path="url(#pa028298de5)" style="fill: none; stroke: #b0b0b0; stroke-width: 0.8; stroke-linecap: square"/>
                    </g>
                    <g id="line2d_16">
                        <defs>
                            <path id="m32cfea6b37" d="M 0 0
L -3.5 0 
" style="stroke: #000000; stroke-width: 0.8"/>
                        </defs>
                        <g>
                            <use xlink:href="#m32cfea6b37" x="57.6" y="280.679231"
                                 style="stroke: #000000; stroke-width: 0.8"/>
                        </g>
                    </g>
                    <g id="text_9">
                        <!-- −500 -->
                        <g transform="translate(23.132812 284.478449) scale(0.1 -0.1)">
                            <defs>
                                <path id="DejaVuSans-2212" d="M 678 2272
L 4684 2272 
L 4684 1741 
L 678 1741 
L 678 2272 
z
" transform="scale(0.015625)"/>
                            </defs>
                            <use xlink:href="#DejaVuSans-2212"/>
                            <use xlink:href="#DejaVuSans-35" transform="translate(83.789062 0)"/>
                            <use xlink:href="#DejaVuSans-30" transform="translate(147.412109 0)"/>
                            <use xlink:href="#DejaVuSans-30" transform="translate(211.035156 0)"/>
                        </g>
                    </g>
                </g>
                <g id="ytick_2">
                    <g id="line2d_17">
                        <path d="M 57.6 249.434564
L 414.72 249.434564 
" clip-path="url(#pa028298de5)" style="fill: none; stroke: #b0b0b0; stroke-width: 0.8; stroke-linecap: square"/>
                    </g>
                    <g id="line2d_18">
                        <g>
                            <use xlink:href="#m32cfea6b37" x="57.6" y="249.434564"
                                 style="stroke: #000000; stroke-width: 0.8"/>
                        </g>
                    </g>
                    <g id="text_10">
                        <!-- 0 -->
                        <g transform="translate(44.2375 253.233783) scale(0.1 -0.1)">
                            <use xlink:href="#DejaVuSans-30"/>
                        </g>
                    </g>
                </g>
                <g id="ytick_3">
                    <g id="line2d_19">
                        <path d="M 57.6 218.189898
L 414.72 218.189898 
" clip-path="url(#pa028298de5)" style="fill: none; stroke: #b0b0b0; stroke-width: 0.8; stroke-linecap: square"/>
                    </g>
                    <g id="line2d_20">
                        <g>
                            <use xlink:href="#m32cfea6b37" x="57.6" y="218.189898"
                                 style="stroke: #000000; stroke-width: 0.8"/>
                        </g>
                    </g>
                    <g id="text_11">
                        <!-- 500 -->
                        <g transform="translate(31.5125 221.989117) scale(0.1 -0.1)">
                            <use xlink:href="#DejaVuSans-35"/>
                            <use xlink:href="#DejaVuSans-30" transform="translate(63.623047 0)"/>
                            <use xlink:href="#DejaVuSans-30" transform="translate(127.246094 0)"/>
                        </g>
                    </g>
                </g>
                <g id="ytick_4">
                    <g id="line2d_21">
                        <path d="M 57.6 186.945232
L 414.72 186.945232 
" clip-path="url(#pa028298de5)" style="fill: none; stroke: #b0b0b0; stroke-width: 0.8; stroke-linecap: square"/>
                    </g>
                    <g id="line2d_22">
                        <g>
                            <use xlink:href="#m32cfea6b37" x="57.6" y="186.945232"
                                 style="stroke: #000000; stroke-width: 0.8"/>
                        </g>
                    </g>
                    <g id="text_12">
                        <!-- 1000 -->
                        <g transform="translate(25.15 190.74445) scale(0.1 -0.1)">
                            <use xlink:href="#DejaVuSans-31"/>
                            <use xlink:href="#DejaVuSans-30" transform="translate(63.623047 0)"/>
                            <use xlink:href="#DejaVuSans-30" transform="translate(127.246094 0)"/>
                            <use xlink:href="#DejaVuSans-30" transform="translate(190.869141 0)"/>
                        </g>
                    </g>
                </g>
                <g id="ytick_5">
                    <g id="line2d_23">
                        <path d="M 57.6 155.700565
L 414.72 155.700565 
" clip-path="url(#pa028298de5)" style="fill: none; stroke: #b0b0b0; stroke-width: 0.8; stroke-linecap: square"/>
                    </g>
                    <g id="line2d_24">
                        <g>
                            <use xlink:href="#m32cfea6b37" x="57.6" y="155.700565"
                                 style="stroke: #000000; stroke-width: 0.8"/>
                        </g>
                    </g>
                    <g id="text_13">
                        <!-- 1500 -->
                        <g transform="translate(25.15 159.499784) scale(0.1 -0.1)">
                            <use xlink:href="#DejaVuSans-31"/>
                            <use xlink:href="#DejaVuSans-35" transform="translate(63.623047 0)"/>
                            <use xlink:href="#DejaVuSans-30" transform="translate(127.246094 0)"/>
                            <use xlink:href="#DejaVuSans-30" transform="translate(190.869141 0)"/>
                        </g>
                    </g>
                </g>
                <g id="ytick_6">
                    <g id="line2d_25">
                        <path d="M 57.6 124.455899
L 414.72 124.455899 
" clip-path="url(#pa028298de5)" style="fill: none; stroke: #b0b0b0; stroke-width: 0.8; stroke-linecap: square"/>
                    </g>
                    <g id="line2d_26">
                        <g>
                            <use xlink:href="#m32cfea6b37" x="57.6" y="124.455899"
                                 style="stroke: #000000; stroke-width: 0.8"/>
                        </g>
                    </g>
                    <g id="text_14">
                        <!-- 2000 -->
                        <g transform="translate(25.15 128.255118) scale(0.1 -0.1)">
                            <use xlink:href="#DejaVuSans-32"/>
                            <use xlink:href="#DejaVuSans-30" transform="translate(63.623047 0)"/>
                            <use xlink:href="#DejaVuSans-30" transform="translate(127.246094 0)"/>
                            <use xlink:href="#DejaVuSans-30" transform="translate(190.869141 0)"/>
                        </g>
                    </g>
                </g>
                <g id="ytick_7">
                    <g id="line2d_27">
                        <path d="M 57.6 93.211233
L 414.72 93.211233 
" clip-path="url(#pa028298de5)" style="fill: none; stroke: #b0b0b0; stroke-width: 0.8; stroke-linecap: square"/>
                    </g>
                    <g id="line2d_28">
                        <g>
                            <use xlink:href="#m32cfea6b37" x="57.6" y="93.211233"
                                 style="stroke: #000000; stroke-width: 0.8"/>
                        </g>
                    </g>
                    <g id="text_15">
                        <!-- 2500 -->
                        <g transform="translate(25.15 97.010451) scale(0.1 -0.1)">
                            <use xlink:href="#DejaVuSans-32"/>
                            <use xlink:href="#DejaVuSans-35" transform="translate(63.623047 0)"/>
                            <use xlink:href="#DejaVuSans-30" transform="translate(127.246094 0)"/>
                            <use xlink:href="#DejaVuSans-30" transform="translate(190.869141 0)"/>
                        </g>
                    </g>
                </g>
                <g id="ytick_8">
                    <g id="line2d_29">
                        <path d="M 57.6 61.966566
L 414.72 61.966566 
" clip-path="url(#pa028298de5)" style="fill: none; stroke: #b0b0b0; stroke-width: 0.8; stroke-linecap: square"/>
                    </g>
                    <g id="line2d_30">
                        <g>
                            <use xlink:href="#m32cfea6b37" x="57.6" y="61.966566"
                                 style="stroke: #000000; stroke-width: 0.8"/>
                        </g>
                    </g>
                    <g id="text_16">
                        <!-- 3000 -->
                        <g transform="translate(25.15 65.765785) scale(0.1 -0.1)">
                            <use xlink:href="#DejaVuSans-33"/>
                            <use xlink:href="#DejaVuSans-30" transform="translate(63.623047 0)"/>
                            <use xlink:href="#DejaVuSans-30" transform="translate(127.246094 0)"/>
                            <use xlink:href="#DejaVuSans-30" transform="translate(190.869141 0)"/>
                        </g>
                    </g>
                </g>
                <g id="text_17">
                    <!-- Fitness -->
                    <g transform="translate(17.053125 191.845187) rotate(-90) scale(0.1 -0.1)">
                        <defs>
                            <path id="DejaVuSans-46" d="M 628 4666
L 3309 4666 
L 3309 4134 
L 1259 4134 
L 1259 2759 
L 3109 2759 
L 3109 2228 
L 1259 2228 
L 1259 0 
L 628 0 
L 628 4666 
z
" transform="scale(0.015625)"/>
                        </defs>
                        <use xlink:href="#DejaVuSans-46"/>
                        <use xlink:href="#DejaVuSans-69" transform="translate(50.269531 0)"/>
                        <use xlink:href="#DejaVuSans-74" transform="translate(78.052734 0)"/>
                        <use xlink:href="#DejaVuSans-6e" transform="translate(117.261719 0)"/>
                        <use xlink:href="#DejaVuSans-65" transform="translate(180.640625 0)"/>
                        <use xlink:href="#DejaVuSans-73" transform="translate(242.164062 0)"/>
                        <use xlink:href="#DejaVuSans-73" transform="translate(294.263672 0)"/>
                    </g>
                </g>
            </g>
            <g id="line2d_31">
                <path d="M 73.832727 239.701601
L 74.918528 242.077008 
L 76.00433 236.882394 
L 77.090131 236.287309 
L 78.175932 233.945396 
L 79.261733 232.606562 
L 80.347534 228.561752 
L 81.433335 236.25169 
L 82.519137 236.60088 
L 83.604938 236.76354 
L 84.690739 237.241771 
L 85.77654 236.999812 
L 87.948142 231.747646 
L 89.033943 235.092638 
L 90.119745 232.744038 
L 91.205546 235.713282 
L 92.291347 234.203727 
L 93.377148 234.169295 
L 94.462949 233.730558 
L 95.54875 233.138846 
L 96.634552 236.288433 
L 97.720353 235.123507 
L 98.806154 233.715123 
L 99.891955 229.816601 
L 100.977756 230.370444 
L 102.063557 231.134876 
L 103.149358 225.548829 
L 104.23516 220.799515 
L 105.320961 223.373451 
L 106.406762 218.242639 
L 107.492563 216.520495 
L 108.578364 215.031312 
L 109.664165 212.488809 
L 110.749967 222.105042 
L 111.835768 221.983063 
L 112.921569 218.009304 
L 114.00737 220.148501 
L 115.093171 218.777798 
L 116.178972 217.946065 
L 117.264773 217.355728 
L 118.350575 217.984183 
L 119.436376 224.31554 
L 120.522177 222.697378 
L 121.607978 219.11249 
L 122.693779 212.732517 
L 123.77958 220.793516 
L 124.865382 218.589017 
L 125.951183 215.01369 
L 127.036984 220.879189 
L 128.122785 215.316826 
L 129.208586 215.962778 
L 130.294387 221.006792 
L 131.380189 209.824014 
L 132.46599 213.122325 
L 133.551791 211.540471 
L 134.637592 208.012885 
L 135.723393 212.391138 
L 136.809194 206.964627 
L 137.894995 212.847622 
L 138.980797 214.474845 
L 140.066598 217.548757 
L 141.152399 210.847089 
L 142.2382 213.778401 
L 143.324001 207.344624 
L 144.409802 198.7734 
L 145.495604 210.644748 
L 146.581405 205.762019 
L 147.667206 203.790856 
L 148.753007 211.54547 
L 150.924609 201.106939 
L 152.01041 201.845563 
L 153.096212 202.925066 
L 154.182013 203.671251 
L 155.267814 204.100241 
L 156.353615 201.275598 
L 157.439416 202.061089 
L 158.525217 204.410813 
L 159.611019 202.767531 
L 160.69682 203.741489 
L 161.782621 211.050742 
L 162.868422 211.210777 
L 163.954223 212.046072 
L 165.040024 199.295686 
L 166.125825 211.862603 
L 168.297428 201.07157 
L 169.383229 204.58497 
L 170.46903 206.938569 
L 171.554831 204.751567 
L 172.640632 209.212993 
L 173.726434 210.256127 
L 174.812235 208.014447 
L 175.898036 204.626713 
L 176.983837 202.186692 
L 178.069638 205.881874 
L 180.24124 200.980398 
L 181.327042 207.884032 
L 182.412843 207.573898 
L 184.584445 197.910922 
L 185.670246 205.707654 
L 186.756047 203.843722 
L 187.841849 203.78117 
L 188.92765 203.992072 
L 191.099252 209.239988 
L 192.185053 205.242358 
L 193.270854 207.377681 
L 194.356656 207.273824 
L 195.442457 213.355223 
L 196.528258 214.232386 
L 197.614059 211.480668 
L 198.69986 209.159939 
L 199.785661 203.592077 
L 200.871462 206.07909 
L 201.957264 211.377998 
L 203.043065 199.833219 
L 205.214667 207.842539 
L 206.300468 207.648135 
L 207.386269 210.620065 
L 208.472071 214.607759 
L 209.557872 207.00262 
L 210.643673 203.182335 
L 211.729474 210.903204 
L 212.815275 208.067813 
L 213.901076 202.777216 
L 214.986877 205.479568 
L 216.072679 206.461088 
L 217.15848 208.325644 
L 218.244281 205.880124 
L 219.330082 208.783441 
L 220.415883 212.212793 
L 221.501684 212.884929 
L 222.587486 214.904271 
L 224.759088 212.762762 
L 225.844889 213.240243 
L 226.93069 212.144117 
L 228.016491 212.081316 
L 229.102292 214.594887 
L 230.188094 219.300521 
L 231.273895 216.056325 
L 232.359696 211.121917 
L 233.445497 207.990389 
L 234.531298 209.746589 
L 235.617099 209.694536 
L 236.702901 209.958741 
L 237.788702 209.406397 
L 238.874503 206.839273 
L 239.960304 210.053162 
L 241.046105 203.378864 
L 242.131906 204.283459 
L 243.217708 209.913123 
L 244.303509 207.957145 
L 245.38931 206.596377 
L 246.475111 209.209556 
L 247.560912 204.643398 
L 248.646713 208.489616 
L 249.732514 202.807274 
L 250.818316 203.674063 
L 251.904117 206.682487 
L 252.989918 195.894516 
L 254.075719 208.736449 
L 255.16152 206.9007 
L 256.247321 202.874637 
L 257.333123 202.761344 
L 258.418924 203.331059 
L 259.504725 209.291417 
L 260.590526 201.633287 
L 261.676327 201.584358 
L 262.762128 200.628583 
L 263.847929 207.245516 
L 264.933731 203.965639 
L 266.019532 199.577763 
L 267.105333 196.673508 
L 268.191134 202.837456 
L 269.276935 203.710995 
L 270.362736 200.310825 
L 271.448538 195.788722 
L 272.534339 202.397844 
L 273.62014 201.730333 
L 274.705941 206.431718 
L 275.791742 203.541836 
L 276.877543 198.93131 
L 277.963344 196.232209 
L 279.049146 198.700475 
L 280.134947 197.272906 
L 281.220748 197.111309 
L 282.306549 208.092184 
L 283.39235 199.810973 
L 284.478151 201.9213 
L 285.563953 202.363975 
L 286.649754 194.156751 
L 287.735555 198.86026 
L 288.821356 196.912968 
L 289.907157 205.244045 
L 290.992958 204.832553 
L 292.07876 205.374086 
L 293.164561 203.861344 
L 294.250362 195.4026 
L 295.336163 203.273507 
L 296.421964 201.727771 
L 297.507765 202.84308 
L 298.593566 200.637957 
L 299.679368 209.704159 
L 300.765169 211.251895 
L 301.85097 212.034511 
L 302.936771 206.756162 
L 304.022572 207.162093 
L 305.108373 207.98489 
L 306.194175 205.126378 
L 307.279976 210.162518 
L 308.365777 212.331023 
L 309.451578 206.386663 
L 310.537379 206.326923 
L 311.62318 211.589275 
L 312.708981 212.987474 
L 313.794783 210.201699 
L 314.880584 209.204307 
L 315.966385 205.777892 
L 317.052186 207.402614 
L 318.137987 211.638579 
L 319.223788 210.471341 
L 320.30959 210.3453 
L 321.395391 206.72773 
L 322.481192 203.750363 
L 323.566993 201.792385 
L 324.652794 208.036256 
L 325.738595 212.983099 
L 326.824396 216.364834 
L 327.910198 213.800772 
L 328.995999 209.082765 
L 330.0818 201.827316 
L 331.167601 211.657513 
L 332.253402 207.612579 
L 333.339203 202.960685 
L 334.425005 202.285675 
L 335.510806 203.622947 
L 336.596607 207.28076 
L 337.682408 207.947459 
L 338.768209 205.566115 
L 339.85401 198.914563 
L 340.939811 199.689244 
L 342.025613 204.68964 
L 343.111414 204.500672 
L 344.197215 203.556583 
L 345.283016 200.689823 
L 346.368817 199.475655 
L 347.454618 200.287891 
L 348.54042 205.296099 
L 349.626221 200.358817 
L 350.712022 202.854141 
L 351.797823 199.118591 
L 352.883624 201.479563 
L 353.969425 198.96118 
L 355.055227 198.884631 
L 356.141028 198.551125 
L 357.226829 200.937031 
L 358.31263 204.993463 
L 359.398431 202.511262 
L 360.484232 204.650272 
L 361.570033 200.112109 
L 362.655835 204.157606 
L 363.741636 203.805666 
L 364.827437 208.362763 
L 365.913238 205.400019 
L 366.999039 199.550767 
L 368.08484 200.720755 
L 369.170642 206.627372 
L 370.256443 202.148074 
L 371.342244 198.897629 
L 372.428045 192.797483 
L 373.513846 202.924629 
L 374.599647 200.400935 
L 375.685448 203.136093 
L 376.77125 203.91271 
L 377.857051 206.351669 
L 378.942852 202.704791 
L 380.028653 200.13648 
L 381.114454 210.73642 
L 382.200255 197.846183 
L 383.286057 200.05918 
L 384.371858 200.448052 
L 385.457659 202.051153 
L 386.54346 206.145954 
L 387.629261 202.78634 
L 388.715062 204.478114 
L 389.800863 204.157981 
L 390.886665 204.127673 
L 391.972466 211.462921 
L 393.058267 209.282106 
L 394.144068 202.966372 
L 395.229869 202.098707 
L 396.31567 204.934973 
L 397.401472 200.037059 
L 398.487273 201.834502 
L 398.487273 201.834502 
" clip-path="url(#pa028298de5)" style="fill: none; stroke: #0000ff; stroke-width: 1.5; stroke-linecap: square"/>
            </g>
            <g id="line2d_32">
                <path d="M 73.832727 275.46473
L 74.918528 280.041406 
L 76.00433 279.350671 
L 77.090131 282.737278 
L 78.175932 283.09042 
L 79.261733 281.164596 
L 80.347534 277.611295 
L 81.433335 281.07474 
L 82.519137 281.255993 
L 83.604938 283.140412 
L 84.690739 280.412661 
L 85.77654 278.791663 
L 86.862341 279.986869 
L 87.948142 277.429335 
L 89.033943 283.043024 
L 90.119745 284.223581 
L 91.205546 286.309744 
L 92.291347 285.949978 
L 94.462949 283.568089 
L 95.54875 284.971867 
L 96.634552 288.764527 
L 97.720353 289.124514 
L 98.806154 287.993202 
L 99.891955 286.292764 
L 100.977756 288.291378 
L 102.063557 290.621292 
L 103.149358 285.99824 
L 104.23516 285.736897 
L 105.320961 289.38272 
L 106.406762 283.997857 
L 107.492563 284.763946 
L 108.578364 283.656694 
L 109.664165 280.989198 
L 110.749967 289.341149 
L 111.835768 289.582783 
L 112.921569 286.370375 
L 114.00737 289.957064 
L 115.093171 288.346837 
L 116.178972 289.634881 
L 117.264773 289.536512 
L 118.350575 287.54469 
L 119.436376 291.105915 
L 120.522177 291.796567 
L 121.607978 291.967671 
L 122.693779 285.091805 
L 123.77958 295.488 
L 124.865382 292.455655 
L 125.951183 289.782421 
L 127.036984 293.347246 
L 128.122785 287.354027 
L 129.208586 289.708571 
L 130.294387 293.04041 
L 131.380189 287.118285 
L 132.46599 288.294375 
L 133.551791 286.239041 
L 134.637592 284.980077 
L 135.723393 287.591142 
L 136.809194 283.85732 
L 137.894995 289.211948 
L 138.980797 288.150818 
L 140.066598 288.970525 
L 141.152399 285.081534 
L 142.2382 289.339971 
L 143.324001 283.624412 
L 144.409802 275.114414 
L 145.495604 287.862906 
L 146.581405 284.181226 
L 147.667206 283.276629 
L 148.753007 288.679171 
L 149.838808 284.037153 
L 150.924609 280.237913 
L 152.01041 281.261354 
L 153.096212 282.082817 
L 154.182013 282.341502 
L 155.267814 282.218526 
L 156.353615 280.618912 
L 157.439416 281.314849 
L 158.525217 284.144137 
L 159.611019 280.844942 
L 160.69682 281.045141 
L 161.782621 287.862793 
L 163.954223 289.205668 
L 165.040024 280.533976 
L 166.125825 290.440732 
L 167.211627 287.594586 
L 168.297428 282.083766 
L 169.383229 285.063215 
L 170.46903 286.04387 
L 171.554831 284.512599 
L 172.640632 287.537786 
L 173.726434 288.53911 
L 174.812235 288.536355 
L 175.898036 284.14552 
L 176.983837 282.97778 
L 178.069638 286.128463 
L 179.155439 285.081276 
L 180.24124 280.655022 
L 181.327042 286.003891 
L 182.412843 286.770672 
L 183.498644 281.425635 
L 184.584445 280.006577 
L 185.670246 284.194861 
L 186.756047 283.393137 
L 187.841849 281.662534 
L 188.92765 284.477755 
L 190.013451 286.139023 
L 191.099252 288.467253 
L 192.185053 285.60185 
L 193.270854 287.467538 
L 194.356656 284.766417 
L 195.442457 290.63757 
L 196.528258 290.057194 
L 197.614059 288.881469 
L 198.69986 285.779154 
L 199.785661 281.277505 
L 200.871462 284.118047 
L 201.957264 286.005026 
L 203.043065 276.107534 
L 204.128866 279.686928 
L 205.214667 286.231819 
L 206.300468 282.997175 
L 207.386269 287.223919 
L 208.472071 288.949921 
L 209.557872 281.123577 
L 210.643673 281.226552 
L 211.729474 287.184276 
L 212.815275 284.78383 
L 213.901076 281.586698 
L 214.986877 283.324788 
L 216.072679 285.285517 
L 217.15848 284.974334 
L 218.244281 284.473206 
L 220.415883 290.840157 
L 221.501684 287.593457 
L 222.587486 290.226159 
L 223.673287 289.679821 
L 224.759088 290.166276 
L 225.844889 288.992288 
L 226.93069 288.847885 
L 228.016491 290.691028 
L 229.102292 290.27702 
L 230.188094 293.414477 
L 231.273895 290.605784 
L 232.359696 286.336384 
L 233.445497 286.122983 
L 234.531298 287.669881 
L 235.617099 285.908393 
L 236.702901 286.364363 
L 237.788702 286.13362 
L 238.874503 284.027895 
L 239.960304 286.645436 
L 241.046105 281.325527 
L 242.131906 281.694066 
L 243.217708 285.657189 
L 244.303509 280.127331 
L 245.38931 282.6504 
L 246.475111 284.536932 
L 247.560912 280.976238 
L 248.646713 288.124031 
L 249.732514 281.689108 
L 250.818316 283.989554 
L 251.904117 286.787519 
L 252.989918 273.657387 
L 254.075719 286.086155 
L 255.16152 285.70301 
L 256.247321 282.020132 
L 257.333123 283.7953 
L 258.418924 282.228471 
L 259.504725 287.412975 
L 260.590526 278.114366 
L 261.676327 280.774567 
L 262.762128 279.471739 
L 263.847929 284.572388 
L 264.933731 283.639364 
L 266.019532 280.270992 
L 267.105333 280.274734 
L 268.191134 283.442694 
L 269.276935 282.362221 
L 270.362736 283.007872 
L 271.448538 278.95142 
L 272.534339 285.777204 
L 273.62014 284.172533 
L 274.705941 288.806497 
L 275.791742 286.067581 
L 276.877543 281.358179 
L 277.963344 278.395075 
L 279.049146 280.099496 
L 280.134947 279.165114 
L 281.220748 281.26892 
L 282.306549 289.384019 
L 283.39235 281.064132 
L 284.478151 282.606212 
L 285.563953 283.11816 
L 286.649754 278.562102 
L 287.735555 280.909077 
L 288.821356 280.018738 
L 289.907157 285.905024 
L 290.992958 287.96873 
L 292.07876 285.995061 
L 293.164561 286.523592 
L 294.250362 278.184825 
L 295.336163 287.53965 
L 296.421964 283.675532 
L 297.507765 283.618941 
L 298.593566 284.411249 
L 299.679368 288.791891 
L 300.765169 291.340196 
L 301.85097 292.490424 
L 302.936771 287.663531 
L 304.022572 287.331646 
L 305.108373 287.237866 
L 306.194175 284.958159 
L 307.279976 288.248825 
L 308.365777 289.716527 
L 309.451578 288.026528 
L 310.537379 288.465822 
L 311.62318 291.216627 
L 312.708981 290.347481 
L 313.794783 287.852539 
L 314.880584 288.853236 
L 315.966385 285.039202 
L 317.052186 287.464938 
L 318.137987 288.420673 
L 319.223788 291.581563 
L 320.30959 292.551061 
L 321.395391 289.487728 
L 322.481192 284.589169 
L 323.566993 285.535846 
L 325.738595 292.00892 
L 326.824396 293.887974 
L 327.910198 291.967205 
L 328.995999 288.786747 
L 330.0818 282.410451 
L 331.167601 289.588717 
L 332.253402 288.160324 
L 333.339203 283.595588 
L 334.425005 282.29309 
L 335.510806 284.537698 
L 336.596607 289.13592 
L 337.682408 288.464277 
L 338.768209 287.268006 
L 339.85401 281.201825 
L 340.939811 282.277718 
L 342.025613 285.579988 
L 343.111414 287.912819 
L 344.197215 286.843804 
L 345.283016 282.312669 
L 346.368817 280.975212 
L 347.454618 282.801958 
L 348.54042 286.672662 
L 349.626221 284.772494 
L 350.712022 284.001529 
L 351.797823 282.205606 
L 352.883624 284.616403 
L 353.969425 282.682193 
L 355.055227 282.787767 
L 356.141028 281.660343 
L 357.226829 283.158991 
L 358.31263 287.864156 
L 359.398431 284.200686 
L 360.484232 285.352113 
L 361.570033 282.756061 
L 362.655835 287.019549 
L 363.741636 282.625207 
L 364.827437 287.79751 
L 365.913238 284.63063 
L 366.999039 282.362439 
L 368.08484 282.546309 
L 369.170642 287.841774 
L 370.256443 282.976509 
L 372.428045 275.124588 
L 373.513846 282.994265 
L 374.599647 282.398015 
L 375.685448 282.260156 
L 376.77125 283.229571 
L 377.857051 285.40354 
L 378.942852 282.253689 
L 380.028653 280.441633 
L 381.114454 290.652772 
L 382.200255 280.757334 
L 383.286057 283.265633 
L 384.371858 282.974839 
L 385.457659 282.032168 
L 386.54346 286.465642 
L 387.629261 286.213344 
L 388.715062 284.284043 
L 389.800863 284.975006 
L 390.886665 284.153798 
L 391.972466 290.010414 
L 393.058267 288.975948 
L 394.144068 285.520573 
L 395.229869 284.101898 
L 396.31567 285.611663 
L 397.401472 281.595863 
L 398.487273 282.432913 
L 398.487273 282.432913 
" clip-path="url(#pa028298de5)"
                      style="fill: none; stroke-dasharray: 9.6,2.4,1.5,2.4; stroke-dashoffset: 0; stroke: #008000; stroke-width: 1.5"/>
            </g>
            <g id="line2d_33">
                <path d="M 73.832727 203.938471
L 74.918528 204.112609 
L 76.00433 194.414118 
L 78.175932 184.800372 
L 79.261733 184.048528 
L 80.347534 179.512209 
L 81.433335 191.428639 
L 82.519137 191.945767 
L 83.604938 190.386667 
L 84.690739 194.07088 
L 85.77654 195.207961 
L 86.862341 188.750528 
L 87.948142 186.065957 
L 89.033943 187.142251 
L 90.119745 181.264495 
L 91.205546 185.116819 
L 92.291347 182.457475 
L 93.377148 183.588907 
L 94.462949 183.893026 
L 95.54875 181.305825 
L 96.634552 183.81234 
L 97.720353 181.122501 
L 98.806154 179.437043 
L 99.891955 173.340437 
L 102.063557 171.648459 
L 103.149358 165.099418 
L 104.23516 155.862133 
L 105.320961 157.364181 
L 106.406762 152.487421 
L 107.492563 148.277044 
L 108.578364 146.40593 
L 109.664165 143.988419 
L 110.749967 154.868935 
L 111.835768 154.383343 
L 112.921569 149.648233 
L 114.00737 150.339938 
L 115.093171 149.208758 
L 116.178972 146.257249 
L 117.264773 145.174943 
L 118.350575 148.423676 
L 119.436376 157.525165 
L 120.522177 153.59819 
L 121.607978 146.25731 
L 122.693779 140.373229 
L 123.77958 146.099032 
L 124.865382 144.72238 
L 125.951183 140.24496 
L 127.036984 148.411132 
L 128.122785 143.279625 
L 129.208586 142.216985 
L 130.294387 148.973174 
L 131.380189 132.529742 
L 132.46599 137.950276 
L 133.551791 136.8419 
L 134.637592 131.045693 
L 135.723393 137.191134 
L 136.809194 130.071933 
L 137.894995 136.483297 
L 138.980797 140.798871 
L 140.066598 146.12699 
L 141.152399 136.612644 
L 142.2382 138.216831 
L 143.324001 131.064837 
L 144.409802 122.432386 
L 145.495604 133.426591 
L 146.581405 127.342813 
L 147.667206 124.305082 
L 148.753007 134.411768 
L 149.838808 129.001752 
L 150.924609 121.975965 
L 152.01041 122.429772 
L 154.182013 125.001001 
L 155.267814 125.981955 
L 156.353615 121.932283 
L 157.439416 122.807328 
L 158.525217 124.677488 
L 159.611019 124.690119 
L 160.69682 126.437838 
L 161.782621 134.238691 
L 162.868422 133.935811 
L 163.954223 134.886476 
L 165.040024 118.057396 
L 166.125825 133.284474 
L 167.211627 125.647409 
L 168.297428 120.059374 
L 170.46903 127.833267 
L 171.554831 124.990535 
L 172.640632 130.8882 
L 173.726434 131.973144 
L 174.812235 127.49254 
L 175.898036 125.107906 
L 176.983837 121.395604 
L 178.069638 125.635285 
L 179.155439 121.897289 
L 180.24124 121.305774 
L 181.327042 129.764174 
L 182.412843 128.377124 
L 183.498644 124.163542 
L 184.584445 115.815268 
L 185.670246 127.220447 
L 186.756047 124.294307 
L 187.841849 125.899806 
L 188.92765 123.506388 
L 190.013451 126.99999 
L 191.099252 130.012723 
L 192.185053 124.882866 
L 194.356656 129.781231 
L 195.442457 136.072876 
L 196.528258 138.407578 
L 197.614059 134.079867 
L 198.69986 132.540725 
L 199.785661 125.906649 
L 200.871462 128.040134 
L 201.957264 136.750971 
L 203.043065 123.558904 
L 204.128866 128.03201 
L 205.214667 129.453259 
L 206.300468 132.299094 
L 207.386269 134.016212 
L 208.472071 140.265598 
L 210.643673 125.138117 
L 211.729474 134.622133 
L 212.815275 131.351796 
L 213.901076 123.967735 
L 214.986877 127.634347 
L 216.072679 127.636658 
L 217.15848 131.676955 
L 218.244281 127.287042 
L 219.330082 129.80325 
L 220.415883 133.585429 
L 221.501684 138.1764 
L 222.587486 139.582384 
L 223.673287 137.940095 
L 224.759088 135.359248 
L 225.844889 137.488197 
L 228.016491 133.471604 
L 229.102292 138.912753 
L 230.188094 145.186565 
L 231.273895 141.506865 
L 233.445497 129.857795 
L 234.531298 131.823298 
L 235.617099 133.480678 
L 236.702901 133.553118 
L 237.788702 132.679174 
L 238.874503 129.650651 
L 239.960304 133.460888 
L 241.046105 125.4322 
L 242.131906 126.872853 
L 243.217708 134.169057 
L 244.303509 135.786958 
L 245.38931 130.542354 
L 246.475111 133.882179 
L 247.560912 128.310558 
L 248.646713 128.855202 
L 249.732514 123.925439 
L 250.818316 123.358572 
L 251.904117 126.577456 
L 252.989918 118.131646 
L 254.075719 131.386743 
L 255.16152 128.09839 
L 256.247321 123.729142 
L 257.333123 121.727388 
L 258.418924 124.433648 
L 259.504725 131.169859 
L 260.590526 125.152208 
L 261.676327 122.394148 
L 262.762128 121.785428 
L 263.847929 129.918644 
L 267.105333 113.072283 
L 268.191134 122.232219 
L 269.276935 125.059768 
L 270.362736 117.613778 
L 271.448538 112.626024 
L 272.534339 119.018483 
L 273.62014 119.288132 
L 274.705941 124.056938 
L 275.791742 121.016091 
L 276.877543 116.504442 
L 277.963344 114.069343 
L 279.049146 117.301454 
L 280.134947 115.380698 
L 281.220748 112.953698 
L 282.306549 126.800349 
L 283.39235 118.557814 
L 284.478151 121.236388 
L 285.563953 121.609789 
L 286.649754 109.751399 
L 287.735555 116.811443 
L 288.821356 113.807198 
L 289.907157 124.583066 
L 290.992958 121.696376 
L 292.07876 124.75311 
L 293.164561 121.199096 
L 294.250362 112.620376 
L 295.336163 119.007364 
L 296.421964 119.780009 
L 297.507765 122.06722 
L 298.593566 116.864664 
L 299.679368 130.616427 
L 300.765169 131.163594 
L 301.85097 131.578598 
L 302.936771 125.848793 
L 304.022572 126.99254 
L 305.108373 128.731914 
L 306.194175 125.294597 
L 307.279976 132.076212 
L 308.365777 134.945519 
L 309.451578 124.746798 
L 310.537379 124.188024 
L 311.62318 131.961922 
L 312.708981 135.627466 
L 315.966385 126.516582 
L 317.052186 127.340291 
L 318.137987 134.856485 
L 319.223788 129.361118 
L 320.30959 128.139538 
L 321.395391 123.967732 
L 322.481192 122.911557 
L 323.566993 118.048924 
L 324.652794 127.18725 
L 325.738595 133.957278 
L 326.824396 138.841694 
L 327.910198 135.634339 
L 328.995999 129.378783 
L 330.0818 121.244182 
L 331.167601 133.726309 
L 332.253402 127.064834 
L 333.339203 122.325782 
L 334.425005 122.278261 
L 335.510806 122.708197 
L 336.596607 125.425601 
L 337.682408 127.430641 
L 338.768209 123.864225 
L 339.85401 116.627302 
L 340.939811 117.10077 
L 342.025613 123.799292 
L 343.111414 121.088526 
L 344.197215 120.269363 
L 346.368817 117.976098 
L 347.454618 117.773825 
L 348.54042 123.919536 
L 349.626221 115.945139 
L 350.712022 121.706753 
L 351.797823 116.031576 
L 352.883624 118.342723 
L 353.969425 115.240168 
L 355.055227 114.981495 
L 356.141028 115.441908 
L 358.31263 122.12277 
L 359.398431 120.821838 
L 360.484232 123.948431 
L 361.570033 117.468157 
L 364.827437 128.928016 
L 365.913238 126.169407 
L 366.999039 116.739096 
L 368.08484 118.895201 
L 369.170642 125.41297 
L 370.256443 121.319639 
L 371.342244 118.878879 
L 372.428045 110.470377 
L 373.513846 122.854993 
L 374.599647 118.403854 
L 375.685448 124.012029 
L 376.77125 124.595849 
L 377.857051 127.299797 
L 378.942852 123.155894 
L 380.028653 119.831326 
L 381.114454 130.820068 
L 382.200255 114.935033 
L 383.286057 116.852727 
L 384.371858 117.921264 
L 386.54346 125.826266 
L 387.629261 119.359336 
L 388.715062 124.672184 
L 389.800863 123.340956 
L 390.886665 124.101548 
L 391.972466 132.915429 
L 393.058267 129.588264 
L 394.144068 120.41217 
L 395.229869 120.095517 
L 396.31567 124.258283 
L 397.401472 118.478256 
L 398.487273 121.236092 
L 398.487273 121.236092 
" clip-path="url(#pa028298de5)"
                      style="fill: none; stroke-dasharray: 9.6,2.4,1.5,2.4; stroke-dashoffset: 0; stroke: #008000; stroke-width: 1.5"/>
            </g>
            <g id="line2d_34">
                <path d="M 73.832727 111.308143
L 84.690739 111.308143 
L 85.77654 105.590369 
L 86.862341 96.966842 
L 94.462949 96.966842 
L 95.54875 93.092503 
L 98.806154 93.092503 
L 99.891955 92.967524 
L 105.320961 92.967524 
L 106.406762 85.812496 
L 130.294387 85.812496 
L 131.380189 85.687517 
L 134.637592 85.687517 
L 135.723393 79.782275 
L 136.809194 79.782275 
L 137.894995 78.032574 
L 154.182013 78.032574 
L 155.267814 73.25214 
L 169.383229 73.25214 
L 170.46903 72.471023 
L 180.24124 72.471023 
L 181.327042 67.096941 
L 182.412843 72.471023 
L 248.646713 72.471023 
L 249.732514 67.565611 
L 250.818316 66.940717 
L 257.333123 66.940717 
L 258.418924 66.69076 
L 267.105333 66.69076 
L 268.191134 53.568 
L 398.487273 53.568 
L 398.487273 53.568 
" clip-path="url(#pa028298de5)" style="fill: none; stroke: #ff0000; stroke-width: 1.5; stroke-linecap: square"/>
            </g>
            <g id="patch_3">
                <path d="M 57.6 307.584
L 57.6 41.472 
" style="fill: none; stroke: #000000; stroke-width: 0.8; stroke-linejoin: miter; stroke-linecap: square"/>
            </g>
            <g id="patch_4">
                <path d="M 414.72 307.584
L 414.72 41.472 
" style="fill: none; stroke: #000000; stroke-width: 0.8; stroke-linejoin: miter; stroke-linecap: square"/>
            </g>
            <g id="patch_5">
                <path d="M 57.6 307.584
L 414.72 307.584 
" style="fill: none; stroke: #000000; stroke-width: 0.8; stroke-linejoin: miter; stroke-linecap: square"/>
            </g>
            <g id="patch_6">
                <path d="M 57.6 41.472
L 414.72 41.472 
" style="fill: none; stroke: #000000; stroke-width: 0.8; stroke-linejoin: miter; stroke-linecap: square"/>
            </g>
            <g id="text_18">
                <!-- Population's average and best fitness -->
                <g transform="translate(123.529687 35.472) scale(0.12 -0.12)">
                    <defs>
                        <path id="DejaVuSans-50" d="M 1259 4147
L 1259 2394 
L 2053 2394 
Q 2494 2394 2734 2622 
Q 2975 2850 2975 3272 
Q 2975 3691 2734 3919 
Q 2494 4147 2053 4147 
L 1259 4147 
z
M 628 4666 
L 2053 4666 
Q 2838 4666 3239 4311 
Q 3641 3956 3641 3272 
Q 3641 2581 3239 2228 
Q 2838 1875 2053 1875 
L 1259 1875 
L 1259 0 
L 628 0 
L 628 4666 
z
" transform="scale(0.015625)"/>
                        <path id="DejaVuSans-70" d="M 1159 525
L 1159 -1331 
L 581 -1331 
L 581 3500 
L 1159 3500 
L 1159 2969 
Q 1341 3281 1617 3432 
Q 1894 3584 2278 3584 
Q 2916 3584 3314 3078 
Q 3713 2572 3713 1747 
Q 3713 922 3314 415 
Q 2916 -91 2278 -91 
Q 1894 -91 1617 61 
Q 1341 213 1159 525 
z
M 3116 1747 
Q 3116 2381 2855 2742 
Q 2594 3103 2138 3103 
Q 1681 3103 1420 2742 
Q 1159 2381 1159 1747 
Q 1159 1113 1420 752 
Q 1681 391 2138 391 
Q 2594 391 2855 752 
Q 3116 1113 3116 1747 
z
" transform="scale(0.015625)"/>
                        <path id="DejaVuSans-75" d="M 544 1381
L 544 3500 
L 1119 3500 
L 1119 1403 
Q 1119 906 1312 657 
Q 1506 409 1894 409 
Q 2359 409 2629 706 
Q 2900 1003 2900 1516 
L 2900 3500 
L 3475 3500 
L 3475 0 
L 2900 0 
L 2900 538 
Q 2691 219 2414 64 
Q 2138 -91 1772 -91 
Q 1169 -91 856 284 
Q 544 659 544 1381 
z
M 1991 3584 
L 1991 3584 
z
" transform="scale(0.015625)"/>
                        <path id="DejaVuSans-6c" d="M 603 4863
L 1178 4863 
L 1178 0 
L 603 0 
L 603 4863 
z
" transform="scale(0.015625)"/>
                        <path id="DejaVuSans-27" d="M 1147 4666
L 1147 2931 
L 616 2931 
L 616 4666 
L 1147 4666 
z
" transform="scale(0.015625)"/>
                        <path id="DejaVuSans-20" transform="scale(0.015625)"/>
                        <path id="DejaVuSans-76" d="M 191 3500
L 800 3500 
L 1894 563 
L 2988 3500 
L 3597 3500 
L 2284 0 
L 1503 0 
L 191 3500 
z
" transform="scale(0.015625)"/>
                        <path id="DejaVuSans-67" d="M 2906 1791
Q 2906 2416 2648 2759 
Q 2391 3103 1925 3103 
Q 1463 3103 1205 2759 
Q 947 2416 947 1791 
Q 947 1169 1205 825 
Q 1463 481 1925 481 
Q 2391 481 2648 825 
Q 2906 1169 2906 1791 
z
M 3481 434 
Q 3481 -459 3084 -895 
Q 2688 -1331 1869 -1331 
Q 1566 -1331 1297 -1286 
Q 1028 -1241 775 -1147 
L 775 -588 
Q 1028 -725 1275 -790 
Q 1522 -856 1778 -856 
Q 2344 -856 2625 -561 
Q 2906 -266 2906 331 
L 2906 616 
Q 2728 306 2450 153 
Q 2172 0 1784 0 
Q 1141 0 747 490 
Q 353 981 353 1791 
Q 353 2603 747 3093 
Q 1141 3584 1784 3584 
Q 2172 3584 2450 3431 
Q 2728 3278 2906 2969 
L 2906 3500 
L 3481 3500 
L 3481 434 
z
" transform="scale(0.015625)"/>
                        <path id="DejaVuSans-64" d="M 2906 2969
L 2906 4863 
L 3481 4863 
L 3481 0 
L 2906 0 
L 2906 525 
Q 2725 213 2448 61 
Q 2172 -91 1784 -91 
Q 1150 -91 751 415 
Q 353 922 353 1747 
Q 353 2572 751 3078 
Q 1150 3584 1784 3584 
Q 2172 3584 2448 3432 
Q 2725 3281 2906 2969 
z
M 947 1747 
Q 947 1113 1208 752 
Q 1469 391 1925 391 
Q 2381 391 2643 752 
Q 2906 1113 2906 1747 
Q 2906 2381 2643 2742 
Q 2381 3103 1925 3103 
Q 1469 3103 1208 2742 
Q 947 2381 947 1747 
z
" transform="scale(0.015625)"/>
                        <path id="DejaVuSans-62" d="M 3116 1747
Q 3116 2381 2855 2742 
Q 2594 3103 2138 3103 
Q 1681 3103 1420 2742 
Q 1159 2381 1159 1747 
Q 1159 1113 1420 752 
Q 1681 391 2138 391 
Q 2594 391 2855 752 
Q 3116 1113 3116 1747 
z
M 1159 2969 
Q 1341 3281 1617 3432 
Q 1894 3584 2278 3584 
Q 2916 3584 3314 3078 
Q 3713 2572 3713 1747 
Q 3713 922 3314 415 
Q 2916 -91 2278 -91 
Q 1894 -91 1617 61 
Q 1341 213 1159 525 
L 1159 0 
L 581 0 
L 581 4863 
L 1159 4863 
L 1159 2969 
z
" transform="scale(0.015625)"/>
                        <path id="DejaVuSans-66" d="M 2375 4863
L 2375 4384 
L 1825 4384 
Q 1516 4384 1395 4259 
Q 1275 4134 1275 3809 
L 1275 3500 
L 2222 3500 
L 2222 3053 
L 1275 3053 
L 1275 0 
L 697 0 
L 697 3053 
L 147 3053 
L 147 3500 
L 697 3500 
L 697 3744 
Q 697 4328 969 4595 
Q 1241 4863 1831 4863 
L 2375 4863 
z
" transform="scale(0.015625)"/>
                    </defs>
                    <use xlink:href="#DejaVuSans-50"/>
                    <use xlink:href="#DejaVuSans-6f" transform="translate(56.677734 0)"/>
                    <use xlink:href="#DejaVuSans-70" transform="translate(117.859375 0)"/>
                    <use xlink:href="#DejaVuSans-75" transform="translate(181.335938 0)"/>
                    <use xlink:href="#DejaVuSans-6c" transform="translate(244.714844 0)"/>
                    <use xlink:href="#DejaVuSans-61" transform="translate(272.498047 0)"/>
                    <use xlink:href="#DejaVuSans-74" transform="translate(333.777344 0)"/>
                    <use xlink:href="#DejaVuSans-69" transform="translate(372.986328 0)"/>
                    <use xlink:href="#DejaVuSans-6f" transform="translate(400.769531 0)"/>
                    <use xlink:href="#DejaVuSans-6e" transform="translate(461.951172 0)"/>
                    <use xlink:href="#DejaVuSans-27" transform="translate(525.330078 0)"/>
                    <use xlink:href="#DejaVuSans-73" transform="translate(552.820312 0)"/>
                    <use xlink:href="#DejaVuSans-20" transform="translate(604.919922 0)"/>
                    <use xlink:href="#DejaVuSans-61" transform="translate(636.707031 0)"/>
                    <use xlink:href="#DejaVuSans-76" transform="translate(697.986328 0)"/>
                    <use xlink:href="#DejaVuSans-65" transform="translate(757.166016 0)"/>
                    <use xlink:href="#DejaVuSans-72" transform="translate(818.689453 0)"/>
                    <use xlink:href="#DejaVuSans-61" transform="translate(859.802734 0)"/>
                    <use xlink:href="#DejaVuSans-67" transform="translate(921.082031 0)"/>
                    <use xlink:href="#DejaVuSans-65" transform="translate(984.558594 0)"/>
                    <use xlink:href="#DejaVuSans-20" transform="translate(1046.082031 0)"/>
                    <use xlink:href="#DejaVuSans-61" transform="translate(1077.869141 0)"/>
                    <use xlink:href="#DejaVuSans-6e" transform="translate(1139.148438 0)"/>
                    <use xlink:href="#DejaVuSans-64" transform="translate(1202.527344 0)"/>
                    <use xlink:href="#DejaVuSans-20" transform="translate(1266.003906 0)"/>
                    <use xlink:href="#DejaVuSans-62" transform="translate(1297.791016 0)"/>
                    <use xlink:href="#DejaVuSans-65" transform="translate(1361.267578 0)"/>
                    <use xlink:href="#DejaVuSans-73" transform="translate(1422.791016 0)"/>
                    <use xlink:href="#DejaVuSans-74" transform="translate(1474.890625 0)"/>
                    <use xlink:href="#DejaVuSans-20" transform="translate(1514.099609 0)"/>
                    <use xlink:href="#DejaVuSans-66" transform="translate(1545.886719 0)"/>
                    <use xlink:href="#DejaVuSans-69" transform="translate(1581.091797 0)"/>
                    <use xlink:href="#DejaVuSans-74" transform="translate(1608.875 0)"/>
                    <use xlink:href="#DejaVuSans-6e" transform="translate(1648.083984 0)"/>
                    <use xlink:href="#DejaVuSans-65" transform="translate(1711.462891 0)"/>
                    <use xlink:href="#DejaVuSans-73" transform="translate(1772.986328 0)"/>
                    <use xlink:href="#DejaVuSans-73" transform="translate(1825.085938 0)"/>
                </g>
            </g>
            <g id="legend_1">
                <g id="patch_7">
                    <path d="M 199.689687 205.38425
L 272.630313 205.38425 
Q 274.630313 205.38425 274.630313 203.38425 
L 274.630313 145.67175 
Q 274.630313 143.67175 272.630313 143.67175 
L 199.689687 143.67175 
Q 197.689687 143.67175 197.689687 145.67175 
L 197.689687 203.38425 
Q 197.689687 205.38425 199.689687 205.38425 
z
" style="fill: #ffffff; opacity: 0.8; stroke: #cccccc; stroke-linejoin: miter"/>
                </g>
                <g id="line2d_35">
                    <path d="M 201.689687 151.770188
L 211.689687 151.770188 
L 221.689687 151.770188 
" style="fill: none; stroke: #0000ff; stroke-width: 1.5; stroke-linecap: square"/>
                </g>
                <g id="text_19">
                    <!-- average -->
                    <g transform="translate(229.689687 155.270188) scale(0.1 -0.1)">
                        <use xlink:href="#DejaVuSans-61"/>
                        <use xlink:href="#DejaVuSans-76" transform="translate(61.279297 0)"/>
                        <use xlink:href="#DejaVuSans-65" transform="translate(120.458984 0)"/>
                        <use xlink:href="#DejaVuSans-72" transform="translate(181.982422 0)"/>
                        <use xlink:href="#DejaVuSans-61" transform="translate(223.095703 0)"/>
                        <use xlink:href="#DejaVuSans-67" transform="translate(284.375 0)"/>
                        <use xlink:href="#DejaVuSans-65" transform="translate(347.851562 0)"/>
                    </g>
                </g>
                <g id="line2d_36">
                    <path d="M 201.689687 166.448313
L 211.689687 166.448313 
L 221.689687 166.448313 
" style="fill: none; stroke-dasharray: 9.6,2.4,1.5,2.4; stroke-dashoffset: 0; stroke: #008000; stroke-width: 1.5"/>
                </g>
                <g id="text_20">
                    <!-- -1 sd -->
                    <g transform="translate(229.689687 169.948313) scale(0.1 -0.1)">
                        <defs>
                            <path id="DejaVuSans-2d" d="M 313 2009
L 1997 2009 
L 1997 1497 
L 313 1497 
L 313 2009 
z
" transform="scale(0.015625)"/>
                        </defs>
                        <use xlink:href="#DejaVuSans-2d"/>
                        <use xlink:href="#DejaVuSans-31" transform="translate(36.083984 0)"/>
                        <use xlink:href="#DejaVuSans-20" transform="translate(99.707031 0)"/>
                        <use xlink:href="#DejaVuSans-73" transform="translate(131.494141 0)"/>
                        <use xlink:href="#DejaVuSans-64" transform="translate(183.59375 0)"/>
                    </g>
                </g>
                <g id="line2d_37">
                    <path d="M 201.689687 181.126438
L 211.689687 181.126438 
L 221.689687 181.126438 
" style="fill: none; stroke-dasharray: 9.6,2.4,1.5,2.4; stroke-dashoffset: 0; stroke: #008000; stroke-width: 1.5"/>
                </g>
                <g id="text_21">
                    <!-- +1 sd -->
                    <g transform="translate(229.689687 184.626438) scale(0.1 -0.1)">
                        <defs>
                            <path id="DejaVuSans-2b" d="M 2944 4013
L 2944 2272 
L 4684 2272 
L 4684 1741 
L 2944 1741 
L 2944 0 
L 2419 0 
L 2419 1741 
L 678 1741 
L 678 2272 
L 2419 2272 
L 2419 4013 
L 2944 4013 
z
" transform="scale(0.015625)"/>
                        </defs>
                        <use xlink:href="#DejaVuSans-2b"/>
                        <use xlink:href="#DejaVuSans-31" transform="translate(83.789062 0)"/>
                        <use xlink:href="#DejaVuSans-20" transform="translate(147.412109 0)"/>
                        <use xlink:href="#DejaVuSans-73" transform="translate(179.199219 0)"/>
                        <use xlink:href="#DejaVuSans-64" transform="translate(231.298828 0)"/>
                    </g>
                </g>
                <g id="line2d_38">
                    <path d="M 201.689687 195.804563
L 211.689687 195.804563 
L 221.689687 195.804563 
" style="fill: none; stroke: #ff0000; stroke-width: 1.5; stroke-linecap: square"/>
                </g>
                <g id="text_22">
                    <!-- best -->
                    <g transform="translate(229.689687 199.304563) scale(0.1 -0.1)">
                        <use xlink:href="#DejaVuSans-62"/>
                        <use xlink:href="#DejaVuSans-65" transform="translate(63.476562 0)"/>
                        <use xlink:href="#DejaVuSans-73" transform="translate(125 0)"/>
                        <use xlink:href="#DejaVuSans-74" transform="translate(177.099609 0)"/>
                    </g>
                </g>
            </g>
        </g>
    </g>
    <defs>
        <clipPath id="pa028298de5">
            <rect x="57.6" y="41.472" width="357.12" height="266.112"/>
        </clipPath>
    </defs>
</svg>
